<svg xmlns="http://www.w3.org/2000/svg" xmlns:xlink="http://www.w3.org/1999/xlink" viewBox="0 0 595.3 640.9" xmlns:v="https://vecta.io/nano"><style><![CDATA[.B{fill:#00dfbf}.C{fill:#1a2e35}.D{fill:#375a64}.E{fill:#2b454e}.F{fill:#fff}.G{opacity:.15}.H{opacity:.1}.I{fill:#fafafa}.J{opacity:.7}.K{opacity:.9}.L{opacity:.35}.M{fill:#e1e1e1}.N{opacity:.3}.O{opacity:.5}.P{opacity:.2}.Q{opacity:.05}.R{fill:#ffaaa8}.S{opacity:.65}.T{fill:#ececec}.U{fill:#ff9090}.V{stroke-miterlimit:10}]]></style><path fill="#f5f5f5" d="M100.4 586C-10 525.6-10 427.6 100.4 367.1s289.5-60.5 399.9 0 110.4 158.5 0 218.9c-110.4 60.5-289.5 60.5-399.9 0z"/><path d="M109.1 445.6c6.3 3.5 6.3 9.4.1 13-6.2 3.7-16.3 3.8-22.5.2-6.3-3.5-6.3-9.4-.1-13s16.3-3.7 22.5-.2zm165.7-44.9l-60.6-34.6c-1-.6-2.6-.6-3.6 0l-.6.4c-1 .6-1 1.5 0 2l20.6 11.5-21.1 12.2-20.4-11.8c-1-.6-2.6-.6-3.6 0l-.6.4c-1 .6-1 1.5 0 2.1l61.6 35.6.7-.8.3.2 24.3-14 .2.1.4-.4.5-.3-.2-.1 2.1-2.5zm-66.2 101.8l29.8-17.2c1.1-.6 1.1-1.7 0-2.3l-29.8-17.2c-1.1-.6-2.9-.6-4 0L174.7 483c-1.1.6-1.1 1.7 0 2.3l29.8 17.2c1.2.6 2.9.6 4.1 0zm214.3-19.1l29.8-17.2c1.1-.6 1.1-1.7 0-2.3l-29.8-17.2c-1.1-.6-2.9-.6-4 0l-29.8 17.2c-1.1.6-1.1 1.7 0 2.3l29.8 17.2c1.1.6 2.9.6 4 0zM294 500.6l-35-20.3c-.8-.5-.8-1.2 0-1.7l83.9-48.5c.8-.5 2.1-.5 2.9 0l35.1 20.3c.8.5.8 1.2 0 1.7l-84 48.5c-.8.5-2.1.5-2.9 0zm168.2-72.9l-74-42.8c-5.9-3.4-5.9-9 0-12.4l84.1-48.6c5.9-3.4 15.5-3.4 21.4 0l74 42.8c5.9 3.4 5.9 9 0 12.4l-84.1 48.6c-5.9 3.4-15.5 3.4-21.4 0zm-399 7.6l-27.5-15.9c-1.5-.9-1.5-2.2 0-3.1l291.1-168.1c1.5-.9 3.9-.9 5.4 0l27.5 15.9c1.5.9 1.5 2.2 0 3.1L68.5 435.3c-1.4.8-3.8.8-5.3 0zm109.2-25.4c7.3 4.1 7.4 11 .2 15.3-7.3 4.3-19.1 4.4-26.4.3s-7.4-11-.2-15.3 19-4.4 26.4-.3z" class="M"/><use xlink:href="#B" class="B"/><use xlink:href="#B" class="F J"/><use xlink:href="#B" class="Q"/><g class="B"><use xlink:href="#C"/><use xlink:href="#D"/><use xlink:href="#E"/><use xlink:href="#F"/><use xlink:href="#G"/></g><g class="F"><use xlink:href="#C" class="K"/><use xlink:href="#D" class="K"/><use xlink:href="#E" class="K"/><use xlink:href="#F" class="K"/><use xlink:href="#G" class="K"/></g><use xlink:href="#H" class="B"/><use xlink:href="#H" opacity=".75" class="F"/><use xlink:href="#I" class="B"/><use xlink:href="#I" class="F J"/><use xlink:href="#I" class="Q"/><g class="B"><use xlink:href="#J"/><use xlink:href="#K"/><use xlink:href="#L"/><use xlink:href="#M"/><use xlink:href="#N"/></g><g class="F"><use xlink:href="#J" class="K"/><use xlink:href="#K" class="K"/><use xlink:href="#L" class="K"/><use xlink:href="#M" class="K"/><use xlink:href="#N" class="K"/></g><use xlink:href="#O" class="B"/><use xlink:href="#O" opacity=".75" class="F"/><path d="M178.3 480l26.5-15.3c.5-.3 1.1-.4 1.8-.4.6 0 1.3.1 1.8.4l26.5 15.3c.5.3.7.7.7 1v1.9c0 .4-.2.7-.7 1l-26.5 15.3c-.5.3-1.1.4-1.8.4-.6 0-1.3-.1-1.8-.4L178.3 484c-.5-.3-.7-.7-.7-1v-2c0-.3.2-.7.7-1z" class="B"/><path d="M177.6 481v1.9c0 .4.2.7.7 1l26.5 15.3c.5.3 1.1.4 1.8.4v-35.4c-.6 0-1.3.1-1.8.4L178.3 480c-.5.3-.7.7-.7 1z" class="H"/><path d="M206.5 464.3v35.4c.6 0 1.3-.1 1.8-.4l26.5-15.3c.5-.3.7-.7.7-1v-2c0-.4-.2-.7-.7-1l-26.5-15.3c-.5-.3-1.1-.4-1.8-.4z" class="N"/><use xlink:href="#P" class="B"/><use xlink:href="#P" class="F O"/><path d="M206.5 464.3c.6 0 1.3.1 1.8.4l26.5 15.3c1 .6 1 1.5 0 2.1l-26.5 15.3c-.5.3-1.1.4-1.8.4v-33.5z" class="Q"/><path d="M190.2 479.1h0l11.7-35.2c.2-.5.6-1 1.3-1.4 1.8-1.1 4.8-1.1 6.7 0 .7.4 1.1.9 1.3 1.4h0l11.7 35.2c1.1 3.1-.4 6.4-4.5 8.7-6.5 3.8-17.1 3.8-23.6 0-4.2-2.3-5.7-5.6-4.6-8.7z" class="B"/><g class="I"><use xlink:href="#Q"/><path d="M191.8 474.2h0l1.7-5c-.3.8-.3 1.7-.1 2.5.2.9.7 1.7 1.4 2.5.6.7 1.4 1.3 2.3 1.8 5.2 3 13.6 3 18.8 0 1-.5 1.7-1.2 2.3-1.8.7-.8 1.2-1.7 1.4-2.5s.2-1.7-.1-2.5l1.7 5c.3.8.3 1.7.2 2.5-.3 1.9-1.8 3.8-4.3 5.2-5.8 3.4-15.3 3.4-21.2 0-2.5-1.5-4-3.3-4.3-5.2-.1-.8 0-1.7.2-2.5zm3.4-10.1h0l1.7-5c-.3.8-.2 1.7.2 2.5.4.9 1.2 1.8 2.5 2.5h.1c3.8 2.2 10.1 2.2 13.9 0h.1c1.2-.7 2.1-1.6 2.5-2.5.4-.8.4-1.7.2-2.5l1.7 5c.3.8.3 1.7 0 2.5-.3.9-.9 1.7-1.8 2.5-.4.3-.8.6-1.3.9-1.3.7-2.8 1.3-4.4 1.6-2.4.5-5 .5-7.5 0-1.6-.3-3.1-.8-4.4-1.6-.5-.3-.9-.6-1.3-.9-.9-.8-1.5-1.6-1.8-2.5-.7-.8-.7-1.7-.4-2.5z"/></g><use xlink:href="#R" class="H"/><use xlink:href="#S" class="B"/><use xlink:href="#S" class="F O"/><path d="M392.6 460.9l26.5-15.3c.5-.3 1.1-.4 1.8-.4s1.3.1 1.8.4l26.5 15.3c.5.3.7.7.7 1v1.9c0 .4-.2.7-.7 1l-26.5 15.3c-.5.3-1.1.4-1.8.4s-1.3-.1-1.8-.4l-26.5-15.3c-.5-.3-.7-.7-.7-1v-1.9c0-.4.2-.7.7-1z" class="B"/><path d="M391.9 461.9v1.9c0 .4.2.7.7 1l26.5 15.3c.5.3 1.1.4 1.8.4v-35.4c-.6 0-1.3.1-1.8.4l-26.5 15.3c-.5.4-.7.7-.7 1.1z" class="H"/><path d="M420.9 445.2v35.4c.6 0 1.3-.1 1.8-.4l26.5-15.3c.5-.3.7-.7.7-1V462c0-.4-.2-.7-.7-1l-26.5-15.3c-.5-.4-1.2-.5-1.8-.5z" class="N"/><use xlink:href="#T" class="B"/><use xlink:href="#T" class="F O"/><path d="M420.9 445.2c.6 0 1.3.1 1.8.4l26.5 15.3c1 .6 1 1.5 0 2.1l-26.5 15.3c-.5.3-1.1.4-1.8.4v-33.5z" class="Q"/><path d="M404.5 460h0l11.7-35.2c.2-.5.6-1 1.3-1.4 1.8-1.1 4.8-1.1 6.7 0 .7.4 1.1.9 1.3 1.4h0l11.7 35.2c1.1 3.1-.4 6.4-4.5 8.7-6.5 3.8-17.1 3.8-23.6 0-4.1-2.3-5.6-5.6-4.6-8.7z" class="B"/><g class="I"><use xlink:href="#Q" x="214.3" y="-19.1"/><path d="M406.2 455.1h0l1.7-5c-.3.8-.3 1.7-.1 2.5.2.9.7 1.7 1.4 2.5.6.7 1.4 1.3 2.3 1.8 5.2 3 13.6 3 18.8 0 1-.5 1.7-1.2 2.3-1.8.7-.8 1.2-1.7 1.4-2.5s.2-1.7-.1-2.5l1.7 5c.3.8.3 1.7.2 2.5-.3 1.9-1.8 3.8-4.3 5.2-5.8 3.4-15.3 3.4-21.2 0-2.5-1.5-4-3.3-4.3-5.2-.2-.9-.1-1.7.2-2.5zm3.3-10.1h0l1.7-5c-.3.8-.2 1.7.2 2.5.4.9 1.2 1.8 2.5 2.5h.1c3.8 2.2 10.1 2.2 13.9 0h.1c1.2-.7 2.1-1.6 2.5-2.5.4-.8.4-1.7.2-2.5l1.7 5c.3.8.3 1.7 0 2.5-.3.9-.9 1.7-1.8 2.5-.4.3-.8.6-1.3.9-1.3.7-2.8 1.3-4.4 1.6-2.4.5-5 .5-7.5 0-1.6-.3-3.1-.8-4.4-1.6-.5-.3-.9-.6-1.3-.9-.9-.8-1.5-1.6-1.8-2.5-.6-.8-.6-1.7-.4-2.5z"/></g><use xlink:href="#R" x="214.3" y="-19.1" class="H"/><use xlink:href="#U" class="B"/><use xlink:href="#U" class="F O"/><use xlink:href="#V" class="B"/><use xlink:href="#V" class="G"/><path d="M54.8 400.5h.1c.3 0 .5-.3.5-.5-1.9-26.8-17-42.7-24.7-47.3-.2-.1-.6-.1-.7.2-.1.2-.1.6.2.7 7.6 4.5 22.3 20.1 24.2 46.5 0 .1.2.3.4.4z" class="F"/><path d="M12.1 381.6c-1 3 1.1 5.1 3.2 6.8 1.5 1.3 3.2 2.7 3.7 4.7.9 4-3.9 7.7-2.8 11.6.4 1.7 1.8 2.9 3.3 3.7 1.2.7 2.6 1.1 3.9 1.7.7.2 1.3.4 2 .5 1.9.3 4 .9 5.4 2.4 2.2 2.4 1.9 6 2.7 9.1v.1c1.7 6.5 9.5 9.1 14.9 5.3l11-7.8c4.4-5.9 3.3-16.4-3.7-19.8-1.5-.7-3.2-1.2-4.4-2.3-1.4-1.4-1.8-3.6-1.9-5.6s0-4.1-.8-5.9c-1.1-2.6-3.9-4.1-6.6-4.6-3.2-.6-6.4.7-9.5-.4s-5.9-2.9-9-3.7c-3.5-.9-7.5-.4-10 2.4-.8.4-1.2 1-1.4 1.8z" class="B"/><path d="M44.3 399.2c0-.1-.1-.1-.1-.2-8.2-11.6-21-17.1-25.4-18.1-.2-.1-.5.1-.5.3-.1.2.1.5.3.5 4.1.9 16 6 24 16.6-11.4-3.7-19.9 1.7-20 1.7-.2.1-.3.4-.1.6.1.1.2.2.4.2.1 0 .2 0 .3-.1s8.8-5.6 20.4-1.2c4.2 6 7.1 13.8 6.8 23.4 0 .2.2.4.4.5.3 0 .5-.2.5-.4.3-9.7-2.7-17.6-7-23.8z" class="F"/><path d="M358.3 29.9l-6.3-3.7L54.8 197.7v223.9c0 2.2.8 3.7 2 4.4h0l6.3 3.7c1.2.7 2.9.6 4.8-.5l283.6-163.7c3.7-2.2 6.8-7.4 6.8-11.7V29.9z" class="T"/><use xlink:href="#W" class="B"/><use xlink:href="#W" stroke="#e1e1e1" class="I V"/><g class="B"><path d="M61.1 201.4v26.5L358.3 56.4V29.9z"/><path d="M61.1 227.9l-6.3-3.7v-26.5l6.3 3.7z"/></g><path d="M61.1 227.9l-6.3-3.7v-26.5l6.3 3.7z" class="P"/><path d="M295.9 76.4v6.3c0 1.3.9 1.8 2 1.2L339.2 60V49l-41.3 23.9c-1.1.6-2 2.2-2 3.5z" class="I"/><path d="M349.9 42.8c1.1-.6 2-.1 2 1.2v6.3c0 1.3-.9 2.9-2 3.5L339.2 60V49l10.7-6.2z" class="D"/><path d="M349.1 51.4l-1.2-.4c.1-.5.2-1 .2-1.5 0-1.2-.4-2.1-1.1-2.5-.5-.3-1.1-.3-1.7.1-1.3.8-2.4 2.9-2.4 4.9 0 1.2.4 2.1 1.1 2.5.2.1.5.2.8.2s.6-.1 1-.3c.8-.5 1.5-1.4 1.9-2.6l1.2.4h.1c.2 0 .4-.1.4-.3.1-.2 0-.4-.3-.5zm-3.8 2.3c-.3.2-.6.2-.9.1-.4-.2-.6-.9-.6-1.8 0-1.7.9-3.6 1.9-4.2.2-.1.4-.2.5-.2s.2 0 .3.1c.4.2.6.9.6 1.8.2 1.7-.7 3.6-1.8 4.2z" class="I"/><path d="M350 7.7c-1.2-.8-2.9-.7-4.8.4L61.6 171.9c-3.7 2.2-6.8 7.4-6.8 11.7v14.2l6.3 3.7L358.3 29.9V15.7c0-2.1-.7-3.6-2-4.4-1.1-.6-5.2-2.9-6.3-3.6z" class="C"/><path d="M61.1 187.3c0-4.3 3-9.6 6.8-11.7L351.5 11.8c3.7-2.2 6.8-.4 6.8 3.9v14.2L61.1 201.4v-14.1z" class="E"/><path d="M356.4 11.4c-1.2-.8-3-.7-4.9.4L67.9 175.5c-1.9 1.1-3.6 2.9-4.8 5l-6.4-3.7c1.2-2.1 2.9-4 4.8-5.1L345.2 8.1c1.9-1.1 3.6-1.2 4.8-.4l6.4 3.7z" class="D"/><g class="B"><use xlink:href="#X"/><use xlink:href="#X" x="11.1" y="-6.4"/><use xlink:href="#X" x="22.2" y="-12.8"/><path d="M82.7 338.9c-.2 0-.4-.1-.6-.2a1.1 1.1 0 0 1-.6-1v-72.6a1.1 1.1 0 0 1 .6-1l87-50.2c.4-.2.8-.2 1.2 0a1.1 1.1 0 0 1 .6 1v72.6a1.1 1.1 0 0 1-.6 1l-87 50.2c-.2.2-.4.2-.6.2zm1.2-73v69.8l84.6-48.9V217l-84.6 48.9z"/><path d="M83.7 322.2l-2-1.2 26.3-44.4c.3-.6 1-.7 1.6-.4l17 9.6 17.9-35.9c.2-.3.5-.6.8-.6.4-.1.7 0 1 .3l24.1 21.3-1.6 1.8-23-20.3-17.6 35.6c-.1.3-.4.5-.7.6s-.6.1-.9-.1l-17.1-9.7-25.8 43.4zm38.3-54.3c-.7 0-1.3-.2-1.8-.5-1.3-.7-2-2.2-2-4.1 0-3.4 2.3-7.4 5.3-9.1 1.6-.9 3.3-1.1 4.5-.3 1.3.7 2 2.2 2 4.1 0 3.4-2.3 7.4-5.3 9.1-.9.6-1.8.8-2.7.8zm4.1-11.9c-.4 0-.9.2-1.4.5-2.2 1.3-4 4.4-4 6.9 0 .9.3 1.6.7 1.9.5.3 1.2.1 2-.3 2.2-1.3 4-4.4 4-6.9 0-.9-.3-1.6-.7-1.9-.1-.2-.3-.2-.6-.2zm54.1-44.3l73.3-42.3c1.7-1 3-.2 3 1.7v6.1c0 1.9-1.4 4.3-3 5.2l-73.3 42.3c-1.7 1-3 .2-3-1.7v-6.1c0-1.9 1.4-4.2 3-5.2z"/></g><g class="M"><path d="M178.4 233.4l54.2-31.3c.7-.4 1.2-.1 1.2.7v3.8c0 .8-.5 1.7-1.2 2.1L178.4 240c-.7.4-1.2.1-1.2-.7v-3.8c0-.8.6-1.7 1.2-2.1z"/><use xlink:href="#Y"/><use xlink:href="#Z"/><use xlink:href="#Y" y="13.1"/><use xlink:href="#Z" y="13.1"/><use xlink:href="#Y" y="26.2"/><path d="M177.2 282.6c-.2 0-.5-.1-.6-.3-.2-.3-.1-.8.3-1l51-29.4c.3-.2.8-.1 1 .3.2.3.1.8-.3 1l-51 29.4h-.4z"/></g><path stroke="#e1e1e1" stroke-width=".962" d="M90.8 391.8l61.5-35.6c1.4-.8 2.6-2.8 2.6-4.5v-33.1c0-1.6-1.2-2.3-2.6-1.5l-61.5 35.6c-1.4.8-2.6 2.8-2.6 4.5v33.1c0 1.6 1.2 2.3 2.6 1.5z" class="I V"/><g class="B"><path d="M94.4 355l11.9-6.9c.7-.4 1.3-.1 1.3.7v13.8c0 .8-.6 1.8-1.3 2.2l-11.9 6.9c-.7.4-1.3.1-1.3-.7v-13.8c0-.8.6-1.8 1.3-2.2zm18.5-10.7l36.7-21.2c.3-.2.5 0 .5.3v1.8c0 .3-.2.7-.5.9l-36.7 21.2c-.3.2-.5 0-.5-.3v-1.8c0-.4.2-.8.5-.9z"/><path d="M112.9 351.1l36.7-21.2c.3-.2.5 0 .5.3v1.8c0 .3-.2.7-.5.9l-36.7 21.2c-.3.2-.5 0-.5-.3V352c0-.3.2-.7.5-.9zm0 6.9l36.7-21.2c.3-.2.5 0 .5.3v1.8c0 .3-.2.7-.5.9L112.9 361c-.3.2-.5 0-.5-.3v-1.8c0-.3.2-.7.5-.9zm-19.3 18l56-32.3c.3-.2.5 0 .5.3v1.8c0 .3-.2.7-.5.9l-56 32.3c-.3.2-.5 0-.5-.3v-1.8c0-.3.2-.7.5-.9zm0 6.9l56-32.3c.3-.2.5 0 .5.3v1.8c0 .3-.2.7-.5.9l-56 32.3c-.3.2-.5 0-.5-.3v-1.8c0-.4.2-.8.5-.9zm-7.7-32.6c-.2 0-.3-.1-.4-.2-.1-.2 0-.5.2-.6l1.3-.7c.2-.1.5 0 .6.2s0 .5-.2.6l-1.3.7h-.2z"/><use xlink:href="#a"/><path d="M95.3 344.9c-.2 0-.3-.1-.4-.2-.1-.2 0-.5.2-.6l2.7-1.6c.2-.1.5 0 .6.2s0 .5-.2.6l-2.7 1.6c0 0-.1 0-.2 0z"/><use xlink:href="#b"/><use xlink:href="#c"/><path d="M111.6 335.5c-.2 0-.3-.1-.4-.2-.1-.2 0-.5.2-.6l2.7-1.6c.2-.1.5 0 .6.2s.1.5-.2.6l-2.7 1.6h-.2zm5.6-3.2c-.2 0-.3-.1-.4-.2-.1-.2 0-.5.2-.6l2.7-1.6c.2-.1.5 0 .6.2s.1.5-.2.6l-2.7 1.6c0-.1-.1 0-.2 0zm5.6-3.3c-.2 0-.3-.1-.4-.2-.1-.2 0-.5.2-.6l2.7-1.6c.2-.1.5 0 .6.2s.1.5-.2.6L123 329h-.2zm5.7-3.2c-.2 0-.3-.1-.4-.2-.1-.2 0-.5.2-.6l2.7-1.6c.2-.1.5 0 .6.2s.1.5-.2.6l-2.7 1.6c-.1-.1-.2 0-.2 0z"/><use xlink:href="#a" x="44.2" y="-25.5"/><use xlink:href="#b" x="39" y="-22.5"/><use xlink:href="#a" x="55.4" y="-32"/><use xlink:href="#b" x="50.2" y="-29"/><use xlink:href="#a" x="66.7" y="-38.5"/><use xlink:href="#d"/><path d="M167.8 303c-.2 0-.3-.1-.4-.2-.1-.2 0-.5.2-.6l2.7-1.6c.2-.1.5 0 .6.2s0 .5-.2.6L168 303h-.2z"/><use xlink:href="#b" x="72.7" y="-42"/><use xlink:href="#a" x="89.2" y="-51.5"/><use xlink:href="#a" x="94.8" y="-54.7"/><use xlink:href="#a" x="100.4" y="-58"/><use xlink:href="#a" x="106" y="-61.2"/><use xlink:href="#a" x="111.7" y="-64.5"/><use xlink:href="#a" x="117.1" y="-67.6"/><use xlink:href="#b" x="111.7" y="-64.5"/><path d="M217.8 274.1c-.2 0-.3-.1-.4-.2-.1-.2 0-.5.2-.6l1.3-.7c.2-.1.5-.1.6.2.1.2 0 .5-.2.6l-1.3.7h-.2z"/><use xlink:href="#e"/><use xlink:href="#f"/><use xlink:href="#e" y="-44.2"/><path d="M217.9 324.5c-.2 0-.3-.1-.4-.2-.1-.2 0-.5.2-.6l1.3-.7c.2-.1.5 0 .6.2s0 .5-.2.6l-1.3.7c-.1-.1-.2 0-.2 0zm-128 73.9c-.2 0-.3-.1-.4-.2-.1-.2-.1-.5.2-.6l2.7-1.6c.2-.1.5-.1.6.2.1.2 0 .5-.2.6l-2.7 1.6c-.1-.1-.1 0-.2 0z"/><use xlink:href="#g"/><path d="M100.7 392.1c-.2 0-.3-.1-.4-.2-.1-.2 0-.5.2-.6l2.7-1.6c.2-.1.5 0 .6.2s0 .5-.2.6L101 392c-.1.1-.2.1-.3.1z"/><use xlink:href="#d" x="-56" y="82.7"/><use xlink:href="#h"/><use xlink:href="#g" x="21.9" y="-12.6"/><use xlink:href="#g" x="27.5" y="-15.9"/><use xlink:href="#i"/><use xlink:href="#g" x="38.8" y="-22.4"/><use xlink:href="#g" x="44.4" y="-25.6"/><use xlink:href="#i" x="16.8" y="-9.8"/><use xlink:href="#c" x="44.8" y="24.5"/><use xlink:href="#c" x="50.4" y="21.2"/><use xlink:href="#h" x="50.6" y="-29.2"/><use xlink:href="#c" x="61.6" y="14.7"/><use xlink:href="#c" x="67.3" y="11.5"/><use xlink:href="#i" x="50.6" y="-29.3"/><use xlink:href="#g" x="89.4" y="-51.6"/><use xlink:href="#c" x="84.1" y="1.7"/><use xlink:href="#i" x="67.5" y="-39"/><path d="M201.6 333.9c-.2 0-.3-.1-.4-.2-.1-.2 0-.5.2-.6l2.7-1.6c.2-.1.5-.1.6.2.1.2 0 .5-.2.6l-2.7 1.6c-.1-.1-.1 0-.2 0z"/><use xlink:href="#c" x="100.8" y="-7.9"/><use xlink:href="#a" x="122.5" y="-20.4"/><path d="M85.9 400.7c-.2 0-.3-.1-.4-.2-.1-.2 0-.5.2-.6l1.3-.7c.2-.1.5 0 .6.2s0 .5-.2.6l-1.3.7h-.2z"/><use xlink:href="#e" x="137.2" y="-123.5"/><use xlink:href="#f" x="137.2" y="-79.3"/><use xlink:href="#e" x="137.2" y="-79.2"/><use xlink:href="#j"/><path d="M219.1 326c-.1 0-.2 0-.2-.1-.1-.1-.2-.2-.2-.4V321c0-.2.1-.3.2-.4l4-2.3c.1-.1.3-.1.4 0s.2.2.2.4v4.6c0 .2-.1.3-.2.4l-4 2.3h-.2zm.5-4.8v3.5l3.1-1.8v-3.5l-3.1 1.8zM81.9 354.9c-.1 0-.2 0-.2-.1-.1-.1-.2-.2-.2-.4v-4.6c0-.2.1-.3.2-.4l4-2.3c.1-.1.3-.1.4 0s.2.2.2.4v4.6c0 .2-.1.3-.2.4l-4 2.3c0 .1-.1.1-.2.1zm.5-4.8v3.5l3.1-1.8v-3.5l-3.1 1.8z"/><use xlink:href="#j" x="-137.2" y="129.6"/><path d="M223.1 298.6c0 1.5-.9 3.2-2 3.8s-2 0-2-1.5.9-3.2 2-3.8 2 0 2 1.5zm-65.9 9.9c0 1.5-.9 3.2-2 3.8s-2 0-2-1.5.9-3.2 2-3.8 2 0 2 1.5zm0 50.4c0 1.5-.9 3.2-2 3.8s-2 0-2-1.5.9-3.2 2-3.8c1.1-.7 2 0 2 1.5zm-71.3 19c0 1.5-.9 3.2-2 3.8s-2 0-2-1.5.9-3.2 2-3.8 2 .1 2 1.5z"/></g><g class="E"><path d="M160.1 316.1c-.1 0-.2-.1-.3-.2-.1-.2 0-.4.1-.5l56.4-32.6c.2-.1.4 0 .5.1.1.2 0 .4-.1.5L160.3 316c0 .1-.1.1-.2.1z"/><use xlink:href="#k"/><path d="M160.1 323c-.1 0-.2-.1-.3-.2-.1-.2 0-.4.1-.5l56.4-32.6c.2-.1.4 0 .5.1.1.2 0 .4-.1.5l-56.4 32.6c0 0-.1.1-.2.1z"/><use xlink:href="#k" y="6.9"/><use xlink:href="#k" y="10.3"/><path d="M160.1 333.3c-.1 0-.2-.1-.3-.2-.1-.2 0-.4.1-.5l26.8-15.5c.2-.1.4 0 .5.1.1.2 0 .4-.1.5l-26.8 15.5c0 0-.1.1-.2.1z"/><use xlink:href="#k" y="21.7"/><use xlink:href="#k" y="25.1"/><path d="M160.1 348c-.1 0-.2-.1-.3-.2-.1-.2 0-.4.1-.5l56.4-32.6c.2-.1.4 0 .5.1.1.2 0 .4-.1.5L160.3 348h-.2z"/><path d="M160.1 351.5c-.1 0-.2-.1-.3-.2-.1-.2 0-.4.1-.5l26.8-15.5c.2-.1.4 0 .5.1.1.2 0 .4-.1.5l-26.8 15.5c0 .1-.1.1-.2.1z"/></g><path d="M245.4 310.7h-.1c-.1-.1-.1-.2-.1-.3v-52c0-.1.1-.2.1-.3L287 234c.1-.1.2-.1.3 0s.1.2.1.3v52c0 .1-.1.2-.1.3l-41.8 24.1c0 0-.1 0-.1 0zm.3-52.1v51.3l41.2-23.8v-51.3l-41.2 23.8z" class="M"/><g class="B"><path d="M248.6 286.6h-.1c-.1-.1-.1-.2-.1-.3v-26c0-.1.1-.2.1-.3l35.4-20.4c.1-.1.2-.1.3 0s.1.2.1.3v26c0 .1-.1.2-.1.3l-35.4 20.4c-.1-.1-.2 0-.2 0zm.3-26.1v25.3l34.8-20.1v-25.3l-34.8 20.1z"/><path d="M248.9 289.8l9-5.2c.2-.1.3 0 .3.2v1.1c0 .2-.2.5-.3.6l-9 5.2c-.2.1-.3 0-.3-.2v-1.1c0-.2.1-.5.3-.6z"/></g><g class="M"><use xlink:href="#l"/><use xlink:href="#l" y="7.4"/><use xlink:href="#l" y="3.7"/></g><g class="B"><path d="M283.9 266.1l-12.3-1.9c-.2 0-.3-.2-.2-.3 0-.2.2-.3.3-.2l12.3 1.9c.2 0 .3.2.2.3 0 .1-.1.2-.3.2zm-23-3.6l-12.4-1.9c-.2 0-.3-.2-.2-.3 0-.2.2-.3.3-.2l12.3 1.9c.2 0 .3.2.2.3.1.1-.1.2-.2.2z"/><path d="M248.6 286.6c-.1 0-.1 0-.2-.1s-.2-.3-.1-.4l12.3-16.1c.1-.1.3-.2.4-.1s.2.3.1.4l-12.3 16.1c0 .1-.1.2-.2.2zm23-30.3c-.1 0-.1 0-.2-.1s-.2-.3-.1-.4l12.3-16.2c.1-.1.3-.2.4-.1s.2.3.1.4l-12.3 16.2c0 .2-.1.2-.2.2zm-5.3 4.9c-.7.4-1.3 1.6-1.3 2.7s.6 1.7 1.3 1.2c.7-.4 1.3-1.6 1.3-2.7 0-1-.6-1.6-1.3-1.2zm2.7-3.4l-1 .6v-.5c0-.3-.2-.5-.4-.4l-2.8 1.6c-.2.1-.4.5-.4.8v.5l-1 .6c-.4.3-.8 1-.8 1.7v5c0 .7.4 1 .8.8l5.6-3.2c.4-.3.8-1 .8-1.7v-5c0-.7-.3-1-.8-.8zm-2.7 8.4c-1.1.6-1.9-.2-1.9-1.9s.9-3.5 1.9-4.1c1.1-.6 1.9.2 1.9 1.9 0 1.6-.9 3.5-1.9 4.1z"/></g><path d="M296.8 281h-.1c-.1-.1-.1-.2-.1-.3v-52c0-.1.1-.2.1-.3l41.8-24.1c.1-.1.2-.1.3 0s.1.2.1.3v52c0 .1-.1.2-.1.3L296.9 281h-.1zm.3-52.1v51.3l41.2-23.8v-51.3l-41.2 23.8z" class="M"/><path d="M300 256.9h-.1c-.1-.1-.1-.2-.1-.3v-26c0-.1.1-.2.1-.3l35.4-20.4c.1-.1.2-.1.3 0s.1.2.1.3v26c0 .1-.1.2-.1.3l-35.4 20.4h-.2zm.3-26.1v25.3l34.8-20.1v-25.3l-34.8 20.1zm.1 29.3l9-5.2c.2-.1.3 0 .3.2v1.1c0 .2-.2.5-.3.6l-9 5.2c-.2.1-.3 0-.3-.2v-1.1c-.1-.2.1-.5.3-.6z" class="B"/><g class="M"><use xlink:href="#m"/><use xlink:href="#m" y="7.4"/><use xlink:href="#m" y="3.7"/></g><g class="B"><path d="M317.7 227.8c-2.7 1.5-4.8 5.3-4.8 8.4s2.2 4.3 4.8 2.8c2.7-1.5 4.8-5.3 4.8-8.4s-2.1-4.3-4.8-2.8zm2.5 4.5l-3.6 4.3c-.4.4-.6.3-.6-.2v-4c0-.5.4-1 1-.9l2.9.1c.5-.1.7.3.3.7zM284.9 119c-.5-.2-1.1-.1-1.8.2L89.1 231c-1.5.9-2.7 2.9-2.7 4.6v11.2c0 .8.3 1.4.7 1.7l-5-2.9c-.5-.3-.8-.9-.8-1.7v-11.2c0-1.7 1.2-3.8 2.7-4.6l193.9-111.8c.8-.4 1.4-.5 1.9-.2l5.1 2.9z"/><path d="M89.2 231.1l194-111.8c1.5-.9 2.7-.2 2.7 1.5V132c0 1.7-1.2 3.8-2.7 4.6l-194 111.8c-1.5.9-2.7.2-2.7-1.5v-11.2c0-1.7 1.2-3.8 2.7-4.6z"/></g><path d="M87.3 233.1l-5-2.9c-.5.8-.8 1.8-.8 2.6V244c0 .8.3 1.4.8 1.7l5 2.9c-.5-.3-.7-.9-.7-1.7v-11.2c-.1-.8.2-1.8.7-2.6z" class="G"/><path opacity=".4" d="M284.9 119l-4.9-2.8c-.5-.3-1.2-.3-1.9.2L84.2 228.2c-.7.4-1.4 1.2-1.9 2l5 2.9c.5-.8 1.2-1.6 1.9-2l194-111.8c.6-.4 1.3-.5 1.7-.3z" class="F"/><path d="M275.8 132.3c0 1.6-1.2 3.6-2.7 4.4l-65 37.5c-1.5.9-2.7.2-2.7-1.4s1.2-3.6 2.7-4.4l65-37.5c1.5-.9 2.7-.3 2.7 1.4z" class="I"/><use xlink:href="#n" fill="#e7e7e7" class="J"/><path d="M348.4 131.6c-.2-.4-.4-.8-.7-1.1-.1-.2-.3-.3-.4-.5-.4-.4-.8-.7-1.3-.9-.2-.1-.5-.2-.7-.3-.7-.2-1.4-.3-2.2-.3-.3 0-.5 0-.8.1-.2 0-.4.1-.6.1s-.4.1-.6.1c-.2.1-.4.1-.6.2s-.4.1-.6.2v1.5c0 6.9-4.8 15.2-10.8 18.7-.4.3-.9.5-1.3.7h0c0 .2 0 .4.1.6v.2c0 .2.1.4.1.6s.1.4.2.5c.1.2.1.4.2.6s.1.3.2.5c.2.4.5.8.7 1.2.3.3.5.6.8.8l.1.1c.1.1.3.2.4.3h.1c.2.1.3.2.5.3s.4.2.6.2c1.2.4 2.6.4 4.2-.1.4-.1.8-.3 1.2-.5s.8-.4 1.3-.7c6-3.4 10.8-11.8 10.8-18.7 0-1.6-.3-3.1-.9-4.4zm7.5-12l-1.1 2.2c-.2.4-.1 1 .1 1.4.5.8.9 1.8 1.3 2.8.1.4.5.6.9.4l5.7-2.6a.45.45 0 0 1 .5 0l-7.4-4.2zm-7.1-12l-4.1-2.4h-.8c-.1.1-.2.1-.3.2 0 0-.1 0-.1.1l-3.4 5-4.2-2.5h-.1l-3.1-1.8h-.2c-.1 0-.2 0-.3.1l-4.4 2.5-.5.3-1.3.9s-.1 0-.1.1c-.1.1-.2.1-.2.2-.2.2-.3.4-.4.6h0c-.1.1-.1.3-.1.4l-.6 7.1v.1c0 .1 0 .3-.1.4-.1.3-.3.6-.5.8-1.2 1.1-2.4 2.4-3.6 3.8a.55.55 0 0 1-.5.3c-.2.1-.5.1-.7 0l-4.1-1.4h-.8c-.1 0-.1.1-.2.1l-.1.1c-.1 0-.1.1-.1.2l-1.9 3.3-2 3.5-.7 1.3c-.1.2-.1.4-.1.6h0c0 .2.1.4.3.6l3.3 2.8.2.2c.1.2.2.4.2.7 0 .1 0 .3-.1.4-.6 1.6-1.1 3.3-1.5 4.9-.1.2-.2.5-.4.8-.1.2-.3.3-.4.5l-5.8 4.1-.2.2c-.1.1-.1.2-.2.3h0c-.1.2-.3.5-.3.8v7.4c0 .2.1.4.2.5l7.4 4.3-2.7 5.4c-.2.4 0 .9.3 1.1l10.1 5.8s.1 0 .1.1l-.1-.1-.7-.4c-.4-.2-.5-.7-.3-1.1l3.8-7.6c0-.1.1-.2.1-.3a1.39 1.39 0 0 0-.2-1.1c-.5-.8-.9-1.8-1.3-2.8-.1-.4-.5-.6-.9-.4l-2.9 1.3-2.8 1.3c-.2.1-.4.1-.5 0h0c-.1-.1-.2-.2-.2-.5v-7.4c0-.2.1-.5.2-.8.1-.2.2-.4.4-.5l5.8-4.1.4-.4c.2-.3.3-.5.4-.8.4-1.6.9-3.3 1.5-4.9 0-.1.1-.3.1-.4h0c0-.3-.2-.6-.4-.8l-3.3-2.8c-.2-.1-.3-.3-.3-.6 0-.2 0-.5.1-.6l1.3-2.3 3.4-5.8c.1-.3.4-.4.7-.4h.4l4.1 1.4c.2.1.5.1.7 0s.4-.2.5-.3l3.5-3.8c.2-.2.4-.5.5-.8.1-.2.1-.3.1-.5l.6-7.1c0-.1 0-.3.1-.4.1-.3.4-.7.7-.8l1.2-.7 5.2-3c.2-.1.3-.1.5-.1a1.38 1.38 0 0 1 .3.4l.3 3.3.3 3c0 .4.4.7.8.6 1.1-.2 2.1-.3 3.1-.3.3 0 .6-.1.9-.3.1-.1.3-.2.3-.3l4.7-7.1c0-.1.1-.1.1-.2.2-.2.5-.2.7-.2.1 0 .1 0 .2.1l-5-3.4zm-14.1 65.5l-.1-.1c0-.1 0-.1-.1-.2l-.6-6.2c0-.4-.4-.7-.9-.6-1.1.2-2.1.3-3.1.3-.4 0-1 .2-1.2.6l-1.4 2 7.4 4.2z" class="B"/><path opacity=".55" d="M354.1 110.6c-.1 0-.1-.1-.2-.1-.3-.1-.5 0-.7.2-.1 0-.1.1-.1.2l-4.7 7.1-.3.3c-.3.2-.6.3-.9.3-1 0-2 .1-3.1.3-.4.1-.8-.2-.8-.6l-.3-3-.3-3.3c0-.2-.1-.4-.3-.4-.1-.1-.3 0-.5.1l-5.2 3-1.2.7c-.3.2-.5.5-.7.8-.1.1-.1.3-.1.4l-.6 7.1c0 .2-.1.3-.1.5-.1.3-.3.6-.5.8-1.2 1.1-2.4 2.4-3.5 3.8a.55.55 0 0 1-.5.3c-.2.1-.5.1-.7 0l-4.1-1.4c-.1 0-.3-.1-.4 0h0c-.3 0-.6.2-.7.4l-3.4 5.8-1.3 2.3c-.1.2-.1.4-.1.6s.1.4.3.6l3.3 2.8c.2.2.4.5.4.8h0c0 .1 0 .3-.1.4-.6 1.6-1.1 3.3-1.5 4.9-.1.2-.2.5-.4.8-.1.2-.3.3-.4.4l-5.8 4.1c-.2.1-.3.3-.4.5-.2.2-.2.5-.2.8v7.4c0 .2.1.4.2.5h0c.1.1.3.1.5 0l2.8-1.3 2.9-1.3c.4-.2.8 0 .9.4.3 1 .8 2 1.3 2.8.2.3.2.7.2 1.1 0 .1 0 .2-.1.3l-3.8 7.6c-.2.4 0 .9.3 1.1l.7.4.1.1s-.1 0-.1-.1l-10.1-5.8c-.4-.2-.5-.7-.3-1.1l2.7-5.4-7.4-4.3c-.1-.1-.2-.2-.2-.5v-7.4c0-.3.1-.5.3-.8h0c.1-.1.1-.2.2-.3l.2-.2 5.8-4.1c.2-.1.3-.3.4-.5.2-.3.3-.5.4-.8.4-1.6.9-3.3 1.5-4.9 0-.1.1-.3.1-.4 0-.2-.1-.5-.2-.7 0-.1-.1-.1-.2-.2l-3.3-2.8c-.2-.1-.3-.3-.3-.6h0c0-.2 0-.4.1-.6l.7-1.3 2-3.5.6-1 1.4-2.5c.2-.4.6-.5 1-.4h.1l3.8 1.3.3.1c.2.1.5.1.7 0s.4-.2.5-.3c1.1-1.3 2.3-2.6 3.6-3.8.2-.2.4-.5.5-.8.1-.1.1-.3.1-.4v-.1l.6-7.1c0-.1.1-.3.1-.4h0c.1-.2.2-.4.4-.6l.3-.3 1.4-.8.5-.3 4.4-2.5c.1-.1.2-.1.3-.1h.2l3.1 1.8h.1l4.2 2.5 3.4-5c0-.1.1-.1.1-.1.1-.1.2-.2.3-.2h.8l4.1 2.4 4.9 3.5zM334.6 173c0-.1 0-.1-.1-.2l-.6-6.2c0-.4-.4-.7-.9-.6-1.1.2-2.1.3-3.1.3-.4 0-1 .2-1.2.6l-1.4 2 7.3 4.2v-.1zm21.3-53.4l-1.1 2.2c-.2.4-.1 1 .1 1.4.5.8.9 1.8 1.3 2.8.1.4.5.6.9.4l5.7-2.6a.45.45 0 0 1 .5 0l-7.4-4.2z"/><path d="M334.7 116.3c-.1.1-.1.3-.1.4l-.6 7.1c0 .2-.1.3-.1.5l-9.4-5.4c0-.1.1-.3.1-.4v-.1l.6-7.1c0-.1.1-.3.1-.4l9.4 5.4zm-12.3 24.9l-9.4-5.4c0-.2-.1-.5-.2-.6 0-.1-.1-.1-.2-.2l-3.3-2.8c-.2-.1-.3-.3-.3-.6l9.4 5.4c0 .2.1.4.3.6l3.3 2.8c.2.2.4.5.4.8zm-4 29.6c-.2.4 0 .9.3 1.1l.7.4-10.1-5.8c-.4-.2-.5-.7-.3-1.1l2.7-5.4 2 1.1c.1.1.3.1.5 0l2.8-1.3 5.3 3c0 .1 0 .2-.1.3l-3.8 7.7zm16.3 2.3l-7.3-4.2 1.4-2c.2-.4.8-.6 1.2-.6 1 0 2-.1 3.1-.3.4-.1.8.2.9.6l.6 6.2c0 .1 0 .1.1.2-.1 0-.1.1 0 .1z" class="G"/><path d="M349.3 136.2c0 6.9-4.8 15.2-10.8 18.7-.4.2-.9.5-1.3.7s-.8.3-1.2.5c-1.5.5-3 .5-4.2.1-.2-.1-.4-.1-.6-.2s-.3-.2-.5-.3h-.1c-.1-.1-.3-.2-.4-.3 0 0-.1 0-.1-.1-.3-.2-.6-.5-.8-.8-.3-.4-.5-.7-.7-1.2-.1-.1-.1-.3-.2-.5s-.1-.4-.2-.6-.1-.4-.2-.5c-.1-.2-.1-.4-.1-.6v-.2c0-.2-.1-.4-.1-.6h0c.4-.2.9-.4 1.3-.7 6-3.4 10.8-11.8 10.8-18.7v-.9c0-.2 0-.4-.1-.6.2-.1.4-.2.6-.2.2-.1.4-.2.6-.2.2-.1.4-.1.6-.1s.4-.1.6-.1c.3 0 .5-.1.8-.1.8 0 1.5.1 2.2.3.3.1.5.2.7.3.5.2.9.6 1.3.9.1.1.3.3.4.5.3.3.5.7.7 1.1.7 1.1 1 2.6 1 4.4z" class="S"/><path d="M363.2 123.8h-.5l-5.7 2.6c-.4.2-.8 0-.9-.4-.3-1-.8-2-1.3-2.8-.2-.4-.3-1-.1-1.4l1.1-2.2 7.4 4.2zm-9.1-13.2c-.1 0-.1-.1-.2-.1-.3-.1-.5 0-.7.2-.1.1-.1.1-.1.2l-4.7 7.1-.3.3-2.6-1.5-2.5-1.4-.3-3.3c0-.2-.1-.4-.3-.4l-2-1.1 3.4-5c.1-.2.2-.3.4-.3h.2c.2 0 .4 0 .6.1l4.1 2.4 5 2.8zm-33.7 36.8c-.1.2-.3.3-.4.4l-5.8 4.1c-.2.1-.3.3-.4.5l-9.4-5.4c.1-.1.1-.2.2-.3l.2-.2 5.8-4.1c.2-.1.3-.3.4-.5l9.4 5.5z" class="G"/><path d="M342.2 111.7h0z" class="B"/><path d="M342.2 111.7h0z" class="L"/><use xlink:href="#o" class="B"/><use xlink:href="#o" opacity=".45"/><use xlink:href="#p" class="B"/><use xlink:href="#p" class="L"/><path d="M319.8 123.8c-.2.1-.5.1-.7 0l-.3-.1-3.8-1.3h-.5l.1.1 2.8 1.6 6.5 3.8h.4l4.1 1.4c.2.1.5.1.7 0l-9.3-5.5z" class="G"/><use xlink:href="#q" class="B"/><use xlink:href="#q" class="L"/><path d="M390.6 136.5c-.6-1.3-1.5-2-2.7-2.2h-.3c-.8 0-1.6.1-2.5.5v.9c0 4.5-3.1 9.9-7 12.2-.3.2-.6.3-.8.4.1.7.2 1.3.5 1.8.7 1.5 1.9 2.2 3.3 2.2h.7c.1 0 .2 0 .3-.1h.3c1.5-.4 3-1.4 4.5-2.9 3.4-3.8 5.1-9.6 3.7-12.8z" class="B"/><path d="M386.8 149.2c-1.5 1.6-3.1 2.6-4.5 2.9h-.3c-.1 0-.2 0-.3.1h-.7c-1.4 0-2.6-.7-3.3-2.2-.3-.5-.4-1.2-.5-1.8.3-.1.5-.3.8-.4 3.9-2.2 7-7.7 7-12.2v-.9c.9-.4 1.7-.6 2.5-.5h.3c1.2.2 2.2.9 2.7 2.2 1.5 3.3-.2 9.1-3.7 12.8z" class="S"/><g class="B"><path d="M387.7 159.1l-1.8-2.7c-.1-.2-.5-.2-.7 0l-1 .7 3.5 2c.1.1 0 .1 0 0z"/><use xlink:href="#r"/><use xlink:href="#s"/><use xlink:href="#t"/></g><use xlink:href="#t" opacity=".55"/><path d="M387.7 159.1l-1.8-2.7c-.1-.2-.5-.2-.7 0l-1 .7 3.5 2c.1.1 0 .1 0 0z" class="S"/><use xlink:href="#r" opacity=".55"/><use xlink:href="#s" class="S"/><path d="M372 152.1c-.1.1-.1.3-.2.4l-3.3 4a.76.76 0 0 0-.2.4l-7.1-4.1a.76.76 0 0 1 .2-.4l3.4-4.1c.1-.1.1-.2.2-.4l7 4.2z" class="P"/><path d="M372.1 151.6c0 .1 0 .3-.1.5l-7.1-4.1c0-.1.1-.2.1-.3v-.2c0-.5-.1-1-.1-1.5l3.3 1.9c.1.1.2.1.3.1l3 .2a.47.47 0 0 1 .5.5c.1 1 .1 2 .1 2.9z" class="Q"/><path d="M374.4 140.4a.76.76 0 0 1-.4.2l-3.3.8c-.2.1-.5.2-.6.4l-7.1-4.1c.1-.1.2-.2.4-.3.1 0 .2-.1.2-.1l3.3-.8a.76.76 0 0 0 .4-.2l7.1 4.1z" class="H"/><use xlink:href="#u" class="L"/><path d="M368.6 128l7.1 4c-.1.1-.1.3 0 .4l1.1 3.6v.5l-7.1-4.1v-.4l-1.1-3.6v-.4m19.4-5.2c-.1.1-.2.2-.2.3l-1.9 5.1c-.1.2-.2.3-.4.5l-7.1-4.1a1.38 1.38 0 0 0 .3-.4l.1-.1 1.9-5.1c0-.1.1-.2.2-.3l7.1 4.1z" class="H"/><use xlink:href="#u" class="B"/><use xlink:href="#u" class="L"/><path d="M363 137.7c-.1 0-.1 0 0 0-.1 0-.1 0 0 0h0z" class="L"/><use xlink:href="#v" class="B"/><use xlink:href="#v" class="L"/><use xlink:href="#w" class="B"/><use xlink:href="#w" class="L"/><path d="M364.8 145.9c.1.1.2.1.2.1h0l-.2-.1z" class="L"/><use xlink:href="#x" class="B"/><use xlink:href="#x" opacity=".45"/><path d="M484.7 128.6L462 171.3l-7.3-4.6 22.7-42.3z" class="C"/><path d="M440.8 183.8l21.2-12.5-7.3-4.6-21.2 12.9z" class="D"/><path d="M433.5 183.6l7.3 4.3v-4.1l-7.3-4.2z" class="C"/><path d="M488.3 130.5l-3.6-1.9-22.7 42.7-21.2 12.5v4.1l24.6-14.7z" class="E"/><g class="B"><path d="M447.2 79.4c-.4-.2-1-.1-1.6.2l-103.9 60c-1.3.8-2.4 2.6-2.4 4.2v93.8c0 .7.2 1.3.7 1.5-.4-.3-4.1-2.3-4.5-2.6s-.7-.8-.7-1.5v-93.8c0-1.5 1.1-3.4 2.4-4.2L441 77c.7-.4 1.3-.4 1.7-.2.5.2 3.6 2 4.5 2.6z" class="J"/><use xlink:href="#n" x="43.4" y="24.1" class="J"/></g><path d="M340 141.3l-4.5-2.6c-.4.8-.7 1.6-.7 2.4v93.8c0 .8.3 1.3.7 1.5.4.3 4.1 2.3 4.5 2.6-.4-.3-.7-.8-.7-1.5v-93.8c0-.7.3-1.6.7-2.4z" class="G"/><path d="M447.2 79.4l-4.4-2.6c-.4-.3-1-.2-1.7.2l-103.8 60c-.7.4-1.3 1-1.7 1.8l4.5 2.6c.4-.8 1-1.4 1.7-1.8l103.9-60c.5-.4 1.1-.4 1.5-.2z" class="F O"/><path opacity=".95" d="M407.3 170.6l8.2 11.5-37.1-33.8-39.1 66.2v22.8c0 1.5 1.1 2.2 2.4 1.4l103.8-60c1.3-.8 2.4-2.6 2.4-4.2v-12.6L420.2 142l-12.9 28.6zm4.5-55.5c4.8-2.8 8.8-.5 8.8 5.1s-3.9 12.4-8.8 15.2c-4.8 2.8-8.8.5-8.8-5.1s3.9-12.4 8.8-15.2z" class="I"/><path d="M446.7 80.4c.2 0 .2.5.2.6v93.8c0 1.1-.9 2.6-1.9 3.2l-103.8 60c-.3.2-.5.2-.5.2-.2 0-.2-.5-.2-.6v-93.8c0-1.1.9-2.6 1.9-3.2l103.8-60c.2-.2.4-.2.5-.2m0-1.2c-.3 0-.7.1-1.1.3l-103.8 60c-1.3.8-2.4 2.6-2.4 4.2v93.8c0 1.1.5 1.7 1.3 1.7.3 0 .7-.1 1.1-.3l103.8-60c1.3-.8 2.4-2.6 2.4-4.2V81c0-1.1-.6-1.8-1.3-1.8h0zm100.7 65c3.6-3.3 12 2.8 12 6.4l-33.3 93.2-19.8-9.5 41.1-90.1z" class="B"/><path d="M547.4 144.2c3.6-3.3 12 2.8 12 6.4l-33.3 93.2-19.8-9.5 41.1-90.1z" class="F J"/><use xlink:href="#y" class="B"/><use xlink:href="#y" class="G"/><g class="B"><path d="M567.6 119c-7 5.8-11.4 17.9-9.9 26.9 1.6 9 8.5 11.5 15.5 5.7s11.4-17.9 9.9-26.9-8.5-11.6-15.5-5.7z"/><use xlink:href="#z"/></g><use xlink:href="#z" class="N"/><path d="M564.4 140.3c.2 1.1.5 2 1 2.6 1.1 0 2.3-.5 3.4-1.5 3.3-2.8 5.5-8.5 4.7-12.8-.2-1.1-.5-2-1-2.6-1.1 0-2.2.5-3.4 1.5-3.3 2.8-5.5 8.5-4.7 12.8z" class="D"/><use xlink:href="#AA" class="B"/><use xlink:href="#AA" class="F J"/><use xlink:href="#AB" class="B"/><use xlink:href="#AB" class="G"/><g class="B"><path d="M491.2 109.9c-5 4.2-8.1 12.7-7 19.1s6 8.2 11 4.1c5-4.2 8.1-12.7 7-19.1-1.1-6.5-6-8.3-11-4.1z"/><use xlink:href="#AC"/></g><use xlink:href="#AC" class="N"/><path d="M488.9 125.1c.1.8.4 1.4.7 1.9.8 0 1.6-.4 2.4-1.1 2.4-2 3.9-6.1 3.4-9.1-.1-.8-.4-1.4-.7-1.9-.8 0-1.6.4-2.4 1.1-2.5 1.9-4 6-3.4 9.1z" class="D"/><path d="M485.4 111.9l-7.3-4.3-24.2-31.1 5.9-1.2z" class="C"/><path d="M485.4 111.9l2.9-3.2-27.4-39.1-26.7 14.7v5.3l25.2-13.5z" class="E"/><path d="M434.2 89.6l-8.5-4.9v-5.3l8.5 4.9z" class="C"/><path d="M425.7 79.4l26.8-14.7 8.4 4.9-26.7 14.7z" class="D"/><path d="M507.5 361.9v15.7l-33.6-19.4c-.1-3.9-.7-8-1.8-12h0c-.6-2-1.2-4-2-5.9l37.4 21.6z"/><path d="M548.3 247.6v79.8c-5.9 4.2-11 11.3-14.4 19.2l-5.2 3v-22.3l-73.6-39.4v-77.4l15.1-8.7c.3-.2.6-.3.9-.4.8-.2 1.5-.2 2 .2.9.5 68.8 39.7 73.4 42.4 0 0 .1 0 .1.1.1 0 .1.1.2.1.1.1.2.2.3.2l.3.3c.2.2.3.5.5.8.1.2.1.3.2.5 0 .1.1.3.1.5v.1c0 .2.1.3.1.5v.5z" class="B"/><path d="M455.2 210.5l73.6 42.5 15.1-8.7c1.1-.6 2.1-.7 2.9-.3l-73.5-42.4c-.8-.5-1.8-.4-2.9.2l-15.2 8.7z" class="F N"/><path d="M518.3 353.1c.4-.2.8-1.1 1-1.9.1-1 .3-2 .6-3 .1-.6.1-1.2-.1-1.5l-.3-.2c-.3-.2-.3-.8-.1-1.6l1.9-5.5c.3-.8.8-1.4 1.2-1.4.4.1 1-.5 1.3-1.3l1.5-2.8c.4-.8.6-1.7.4-2-.2-.4 0-1.2.5-1.9l3.3-4.5c.4-.6.9-.8 1.2-.7.1 0 .6.3.6.3.3 0 .6-.2.9-.5l2-1.9c.6-.5 1-1.3 1-1.9s.5-1.3 1-1.6l3.8-2.2c.3-.2.6-.2.8-.1s1.9 1.1 1.9 1.1l1.4-.3c.5-.1 1.1-.6 1.4-1.2.2-.6.8-1.1 1.3-1l3.3.6c.1 0 .2 0 .2.1.3.2 13.3 7.7 13.4 7.7.3.2.4.6.4 1l4.1 2.4.3.3 1.9 3.3c.3.5.2 1.3-.2 1.8s-.5 1.4-.3 2l.6 2.4 1.4.8c.2.1.4.5.4 1v5.1c0 .8-.3 1.6-.8 1.8-.4.2-.8 1.1-.9 1.9-.1 1-.3 2-.5 3.1-.1.6-.1 1.2.1 1.5l.3.2c.3.2.3.8 0 1.6l-1.9 5.5c-.3.8-.8 1.4-1.2 1.4-.4-.1-.9.5-1.3 1.3l-1.5 2.9c-.4.8-.6 1.6-.4 2s0 1.2-.5 1.8l-3.3 4.5c-.4.6-.9.8-1.1.7l-.5-.3c-.3 0-.6.2-1 .6-.7.7-1.4 1.3-2.1 1.9-.6.5-1 1.3-1 1.8s-.5 1.2-1 1.6l-3.8 2.2c-.3.2-.6.2-.8.1s-1.7-1-1.7-1c-.6.1-1.1.3-1.6.3-.5.1-1.1.6-1.3 1.2s-.8 1-1.3.9l-3.3-.6c-.1 0-.2 0-.2-.1-.3-.2-13.3-7.7-13.4-7.7-.3-.2-.4-.6-.4-1l-4.1-2.3-.3-.3-1.9-3.3c-.3-.5-.2-1.3.1-1.8.4-.5.5-1.4.3-2-.2-.8-.4-1.6-.5-2.4 0 0-1.2-.7-1.3-.8-.2-.1-.4-.5-.4-1v-5.1c-.3-1 .1-1.8.5-2z" class="E"/><path d="M530.9 367.7v-5.1c0-.8.3-1.6.8-1.8.4-.2.8-1.1 1-1.9.1-1 .3-2 .6-3 .2-.8.1-1.6-.3-1.6-.4-.1-.4-.8-.2-1.6l1.9-5.5c.3-.8.8-1.4 1.2-1.4.4.1 1-.5 1.3-1.3l1.5-2.8c.4-.8.6-1.7.4-2-.2-.4 0-1.2.5-1.9l3.3-4.5c.5-.7 1.1-.9 1.3-.5s.8.2 1.4-.3l2-1.9c.6-.5 1-1.3 1-1.9s.5-1.3 1-1.6l3.8-2.2c.6-.3 1-.1 1 .5s.5.9 1 .7c.7-.2 1.4-.4 2-.4.5-.1 1.2-.6 1.4-1.2s.8-1.1 1.3-1l3.3.6c.5.1.7.7.5 1.3s0 1.3.4 1.6c.5.3 1 .7 1.5 1.1.4.3 1 .3 1.3-.2.4-.5.9-.5 1.2 0l1.9 3.3c.3.5.2 1.3-.2 1.8s-.5 1.4-.3 2l.6 2.4c.1.7.5 1 1 .8.4-.2.8.2.8.9v5.1c0 .8-.3 1.6-.8 1.8-.4.2-.8 1.1-.9 1.9-.1 1-.3 2-.5 3.1-.2.8-.1 1.6.3 1.6.4.1.4.8.1 1.6l-1.9 5.5c-.3.8-.8 1.4-1.2 1.4-.4-.1-.9.5-1.3 1.3l-1.5 2.9c-.4.8-.6 1.6-.4 2s0 1.2-.5 1.8l-3.3 4.5c-.5.7-1.1.9-1.3.6-.2-.4-.8-.2-1.3.4-.7.7-1.4 1.3-2.1 1.9-.6.5-1 1.3-1 1.8s-.5 1.2-1 1.6l-3.8 2.2c-.6.3-1 .2-1-.4s-.5-.8-1-.6l-2.1.5c-.5.1-1.1.6-1.3 1.2s-.8 1-1.3.9l-3.3-.6c-.5-.1-.7-.6-.5-1.2s0-1.2-.4-1.5c-.5-.3-1-.7-1.5-1.2-.4-.3-1-.3-1.3.2-.4.5-.9.5-1.2 0l-1.9-3.3c-.3-.5-.2-1.3.1-1.8.4-.5.5-1.4.3-2l-.5-2.4c-.1-.7-.5-1.1-.9-.8-.6-.2-1-.6-1-1.4z" class="D"/><path d="M542.7 317.9l11.5 6.6h.1c.2.1.2.3.2.5 0 .6.5.9 1 .7.2-.1.4-.1.6-.2l1.4-.3c.3 0 .6-.2.8-.4l-13.4-7.7c-.3.2-.6.4-.8.4-.4.2-.9.3-1.4.4z" class="C"/><path d="M534.8 322l13.4 7.7c.2-.4.4-.8.4-1.2 0-.3.1-.6.3-.9l-13.4-7.7c-.2.3-.3.6-.3.9s-.2.8-.4 1.2z"/><path d="M531.2 325.1l12.7 7.3h.1c.1 0 .1.1.1.1.1.2.3.2.5.2.3 0 .6-.2.9-.5l2-1.9c.2-.2.4-.4.6-.7l-13.4-7.7c-.2.3-.4.5-.6.7-.7.6-1.4 1.2-2 1.9-.3.4-.6.6-.9.6zm-9.2 13l13.4 7.7c.2-.1.3-.2.4-.2.4.1 1-.5 1.4-1.3l1.5-2.8c.4-.8.6-1.6.4-2-.1-.1-.1-.3-.1-.5l-13.4-7.7c0 .2 0 .4.1.5.2.4 0 1.3-.4 2l-1.5 2.8c-.4.8-1 1.4-1.4 1.3-.1.1-.3.1-.4.2z" class="C"/><path d="M535.4 345.8l-13.4-7.7c.2-.1.3-.2.4-.2h.2l13.4 7.7h-.2c-.1 0-.2.1-.4.2zm-9.7-14c-.1-.1-.1-.3-.1-.5L539 339c0 .2 0 .4.1.5.1.2.1.4.1.7l-13.4-7.7c0-.3 0-.5-.1-.7z"/><path d="M517.8 353.7l13.4 7.7c.1-.3.3-.5.5-.6.4-.2.8-1.1.9-1.9l.6-3c.2-.7.1-1.3-.1-1.5h0l-.4-.2-13.1-7.5c.2.3.2.8.1 1.5l-.6 3c-.1.8-.5 1.7-1 1.9 0 .1-.2.3-.3.6z" class="C"/><path d="M518.3 353.1c.2-.1.4-.4.6-.7l13.4 7.7c-.2.3-.4.6-.6.7s-.4.3-.5.6l-13.4-7.7c.1-.3.3-.5.5-.6z"/><path d="M519.2 366.9l13.4 7.7c.1-.3.1-.5.3-.7s.3-.6.3-.9c.1-.4.1-.7 0-1l-.5-2.4c-.1-.7-.5-1-.9-.8-.2.1-.3.1-.4 0l-12-6.9.5 2.4c.2.6.1 1.5-.3 2-.3.1-.4.3-.4.6z" class="C"/><path d="M532.9 373.9c-.1.2-.2.4-.3.7l-13.4-7.7c0-.3.1-.5.3-.7s.3-.5.3-.8l13.4 7.7c-.1.2-.2.6-.3.8z"/><path d="M564.4 326.7c.5.3 1 .7 1.5 1.1.4.3 1 .3 1.4-.3.3-.3.6-.5.9-.3h-.1l-4-2.3c0 .1 0 .2-.1.2-.2.6 0 1.3.4 1.6z" class="C"/><path d="M526 374.9h0c.1.1.2.1.3.2l13 7.4.1.1c-.3-.2-.4-.7-.3-1.1.2-.6 0-1.2-.4-1.5-.5-.3-1-.7-1.5-1.1-.4-.4-1-.3-1.3.2-.2.3-.5.4-.8.3l-.2-.1-9.3-5.3c-.1.4 0 .8.4.9z"/><path d="M547.1 381l1.7 1c-.2-.1-.2-.2-.2-.5 0-.5-.5-.8-1-.6-.2 0-.3 0-.5.1zm11.5-7.2l.4.2v-.1c-.1-.1-.2-.2-.4-.1zm11.9-36.8c.1.7.5 1 .9.8.1-.1.2-.1.3-.1l-.1-.1-.2-.1-.9-.5z" class="C"/><path d="M545 317.2l13.4 7.7c.2-.2.4-.5.5-.8s.3-.6.6-.8l-13.4-7.7c-.2.2-.5.4-.6.8-.1.3-.3.6-.5.8z"/><path d="M522.1 360.2c0 8.3 2.8 14.2 7.1 16.7 1.3.7 1.9 1.1 3 1.7-4.3-2.6-7-8.4-7-16.6 0-15.2 9.2-32.9 20.7-39.5 4.9-2.8 9.4-3.2 13-1.4-1.1-.7-1.3-.8-2.5-1.5-3.6-2.1-8.4-1.9-13.5 1.1-11.5 6.6-20.8 24.3-20.8 39.5z" class="E"/><path d="M525.2 361.9c0 8.3 2.7 14.1 7 16.6l.9.5c-4.3-2.6-5.9-7.7-5.9-16 0-15.2 9.2-32.9 20.7-39.5 5.1-2.9 8.7-3.8 12.3-1.8l-1.3-.7c-3.5-1.8-8.1-1.5-13 1.4-11.4 6.6-20.7 24.3-20.7 39.5z"/><g class="E"><path d="M546.1 315.7l13.4 7.7c.2-.2.5-.2.7-.2l1.4.3 2 .4h.1c-.1 0-.1-.1-.2-.1l-12.2-7-.6-.4-.1-.1-.2-.1-.2-.2h-.1l-3.3-.6a1.08 1.08 0 0 0-.7.3zm-10.6 4.2l13.4 7.7c.2-.3.4-.6.7-.7l3.9-2.2c.3-.2.5-.2.7-.1l-11.5-6.6-1.2-.7-.4-.3-.2-.1c-.2-.1-.5-.1-.8.1l-3.8 2.2c-.4.1-.6.4-.8.7zm-9.9 11.4L539 339c0-.4.3-.9.6-1.4l3.3-4.5c.4-.5.8-.8 1.1-.7l-12.7-7.3-.6-.3c-.3-.2-.7.1-1.2.7l-3.3 4.5c-.4.4-.6.9-.6 1.3zm-6.3 15.1h0l.3.2 13.1 7.5c-.2-.2-.2-.9 0-1.5l1.9-5.5c.2-.5.5-1 .8-1.2l-13.4-7.7c-.3.2-.6.7-.7 1.2l-1.9 5.5c-.3.7-.3 1.4-.1 1.5z"/><path d="M517.5 354.9v5.1c0 .5.1.8.4 1l1.3.8 12 6.9c-.2-.1-.3-.5-.3-.9v-5.1c0-.4.1-.8.3-1.2h0l-13.4-7.7c-.2.3-.3.7-.3 1.1zm1.8 13.1l1.9 3.3.3.3.9.5.3.2 2.8 1.6 9.3 5.3-.3-.3-1.9-3.3c-.2-.3-.2-.7-.2-1.1l-13.4-7.7c.1.5.1.9.3 1.2zm20.8-8.1c0-8.5 5.1-18.3 11.5-22 6.3-3.7 11.5.2 11.5 8.7s-5.1 18.3-11.5 22c-6.4 3.6-11.5-.3-11.5-8.7z"/></g><path d="M542.2 358.6c0-6.9 4.2-14.8 9.3-17.8s9.3.2 9.3 7c0 6.9-4.2 14.8-9.3 17.8s-9.3-.1-9.3-7z" class="B"/><path d="M545 357c0-4.8 2.9-10.4 6.5-12.5s6.5.1 6.5 4.9-2.9 10.4-6.5 12.5c-3.5 2.1-6.5-.1-6.5-4.9z" class="C"/><path d="M547.8 355.4c0-2.8 1.7-6 3.8-7.2s3.8.1 3.8 2.8-1.7 6-3.8 7.2c-2.1 1.3-3.8 0-3.8-2.8z" class="B"/><path d="M551.2 350.1c0-.3.2-.7.4-.8s.4 0 .4.3-.2.7-.4.8c-.3.1-.4 0-.4-.3zm-1.7 2.3c-.2-.1-.2-.5 0-.8s.4-.5.6-.3c.2.1.2.5 0 .8s-.5.5-.6.3zm-.5 2.9c-.2.1-.4 0-.4-.3s.2-.7.4-.8.4 0 .4.3-.1.6-.4.8zm1.1 1.6c-.2.3-.4.5-.6.3-.2-.1-.2-.5 0-.8s.4-.5.6-.3c.1.1.1.5 0 .8zm1.9-.5c0 .3-.2.7-.4.8s-.4 0-.4-.3.2-.7.4-.8.4 0 .4.3zm1.6-2.3c.2.1.2.5 0 .8s-.4.5-.6.3c-.2-.1-.2-.5 0-.8s.5-.5.6-.3zm.5-2.9c.2-.1.4 0 .4.3s-.2.7-.4.8-.4 0-.4-.3.2-.6.4-.8zm-1-1.6c.2-.3.4-.5.6-.3.2.1.2.5 0 .8s-.4.5-.6.3c-.2-.1-.2-.5 0-.8zm-3.1 4.5c0-1.1.7-2.4 1.5-2.9s1.5 0 1.5 1.1-.7 2.4-1.5 2.9c-.8.6-1.5 0-1.5-1.1z" class="D"/><path d="M533.9 346.6l-2.2 6.1c-1.2 4-1.9 8.1-1.9 12l-22.3 12.9v-15.7l21.3-12.3 5.1-3z" class="C"/><path d="M447 362.3h7.2v7.2H447zm86.9-15.7l-2.2 6.1-24.3 14v-4.9l21.3-12.3 5.2-2.9z"/><use xlink:href="#AD" class="B"/><use xlink:href="#AD" class="P"/><path d="M526.9 254l1.8-1v96.6l-1.8 1.1zm5.6 61.7v-57.1c0-1.3.8-2.9 1.8-3.4l8.6-5c1-.6 1.8 0 1.8 1.4v57.1c0 1.3-.8 2.9-1.8 3.4l-8.6 5c-1 .5-1.8-.1-1.8-1.4z" class="E"/><path d="M548.3 314.8l-19.6 11.3v1.2l19.6-11.3z" class="F J"/><path d="M507.5 361.9L479.9 346l12.2-7.1 27.6 15.9z" class="C"/><path d="M382.1 350.1c.5-.3 1-1.3 1.1-2.3l.7-3.6c.2-.8.1-1.5-.1-1.8 0 0-.3-.2-.4-.2-.3-.2-.4-1-.1-1.9l2.3-6.6c.3-1 1-1.7 1.4-1.6s1.2-.6 1.6-1.6l1.8-3.4c.5-.9.7-2 .5-2.4-.3-.4 0-1.5.6-2.2l4-5.3c.5-.7 1.1-1 1.4-.8.1 0 .7.4.7.4.3 0 .7-.3 1.1-.6l2.4-2.3c.7-.6 1.2-1.6 1.2-2.2 0-.7.6-1.6 1.2-2l4.6-2.6c.4-.2.7-.2.9-.1l2.3 1.3c.6-.1 1.1-.3 1.7-.3.6-.1 1.4-.7 1.6-1.5.3-.7.9-1.3 1.5-1.2l4 .8c.1 0 .2.1.3.1.4.2 15.9 9.1 16 9.2.3.2.5.7.4 1.2l4.9 2.8.3.3 2.3 4c.3.6.3 1.5-.2 2.1-.4.6-.6 1.6-.4 2.4.3.9.5 1.9.7 2.9 0 0 1.5.9 1.6.9.3.1.4.6.4 1.1v6.1c0 .9-.4 1.9-.9 2.2s-1 1.3-1.1 2.3c-.2 1.2-.4 2.4-.7 3.6-.2.8-.1 1.5.1 1.8l.3.2c.3.2.4 1 .1 1.9l-2.3 6.6c-.3 1-1 1.7-1.4 1.6s-1.1.6-1.6 1.6l-1.8 3.5c-.5.9-.7 1.9-.5 2.4.2.4 0 1.4-.6 2.2l-4 5.3c-.5.7-1.1 1-1.4.8-.1 0-.6-.3-.6-.3-.3 0-.7.3-1.1.7-.8.8-1.6 1.6-2.5 2.3-.7.6-1.2 1.5-1.2 2.2 0 .6-.6 1.5-1.2 1.9l-4.6 2.6c-.4.2-.7.3-.9.1-.2-.1-2-1.2-2-1.2-.7.2-1.3.3-1.9.4s-1.4.7-1.6 1.4-.9 1.2-1.5 1.1l-4-.8c-.1 0-.2-.1-.3-.1-.4-.2-15.9-9.1-16-9.2-.4-.2-.5-.7-.4-1.2l-4.8-2.8c-.1-.1-.2-.2-.3-.4l-2.3-4c-.3-.6-.3-1.5.2-2.1.4-.6.6-1.6.4-2.4-.3-.9-.5-1.9-.7-2.9l-1.6-.9c-.3-.1-.4-.6-.4-1.1v-6.1c-.2-1 .2-2 .8-2.3z" class="E"/><g class="C"><path d="M397.1 367.6v-6.1c0-.9.4-1.9.9-2.2s1-1.3 1.1-2.3l.7-3.6c.2-1 .1-1.9-.4-1.9-.4-.1-.5-.9-.2-1.9l2.3-6.6c.3-1 1-1.7 1.4-1.6s1.2-.6 1.6-1.6l1.8-3.4c.5-.9.7-2 .5-2.4-.3-.4 0-1.5.6-2.2l4-5.3c.6-.8 1.3-1.1 1.5-.6.3.4 1 .2 1.6-.4l2.4-2.3c.7-.6 1.2-1.6 1.2-2.2 0-.7.6-1.6 1.2-2l4.6-2.6c.7-.4 1.2-.2 1.2.5s.5 1 1.2.8l2.4-.5c.6-.1 1.4-.7 1.6-1.5s.9-1.3 1.5-1.2l4 .8c.6.1.9.8.6 1.6-.3.7 0 1.6.5 1.9l1.8 1.3c.5.4 1.2.3 1.6-.3s1.1-.6 1.4 0l2.3 4c.3.6.3 1.5-.2 2.1-.4.6-.6 1.6-.4 2.4.3.9.5 1.9.7 2.9.1.8.6 1.3 1.1 1s.9.2.9 1.1v6.1c0 .9-.4 1.9-.9 2.2s-1 1.3-1.1 2.3l-.7 3.6c-.2 1-.1 1.9.4 1.9.4.1.5.9.2 1.9l-2.3 6.6c-.3 1-1 1.7-1.4 1.6s-1.1.6-1.6 1.6l-1.8 3.5c-.5.9-.7 1.9-.5 2.4.2.4 0 1.4-.6 2.2l-4 5.3c-.6.8-1.3 1.1-1.5.7s-.9-.2-1.6.5l-2.5 2.3c-.7.6-1.2 1.5-1.2 2.2 0 .6-.6 1.5-1.2 1.9l-4.6 2.6c-.7.4-1.2.2-1.2-.4s-.5-.9-1.2-.8c-.8.3-1.7.4-2.5.5-.6.1-1.4.7-1.6 1.4s-.9 1.2-1.5 1.1l-4-.8c-.6-.1-.9-.8-.6-1.5.2-.7 0-1.5-.5-1.8-.6-.4-1.2-.9-1.8-1.4-.5-.4-1.1-.3-1.6.2s-1 .6-1.4 0l-2.3-4c-.3-.6-.3-1.5.2-2.1.4-.6.6-1.6.4-2.4-.3-.9-.5-1.9-.7-2.9-.1-.8-.6-1.3-1.1-1-.3.2-.7-.3-.7-1.2z"/><use xlink:href="#AE"/></g><path d="M401.7 313.1l16 9.2c.3-.5.5-1 .5-1.4 0-.3.1-.7.4-1.1l-16-9.2c-.2.4-.4.7-.4 1.1s-.2.9-.5 1.4z"/><g class="C"><path d="M397.5 316.8l15.2 8.7h.1c.1 0 .1.1.2.2.1.2.3.3.5.2.3 0 .7-.3 1.1-.6l2.4-2.3c.3-.2.5-.5.7-.9l-16-9.2c-.2.3-.5.6-.7.8l-2.4 2.3c-.4.5-.8.8-1.1.8z"/><use xlink:href="#AF"/></g><path d="M402.5 341.5l-16-9.2c.2-.1.4-.2.5-.2h.2l16 9.2h-.2c-.2 0-.4 0-.5.2zm-11.6-16.7c-.1-.1-.1-.4-.1-.6l16 9.2c0 .2 0 .4.1.6s.1.5.1.8l-16-9.2c0-.3 0-.6-.1-.8z"/><path d="M381.5 350.9l16 9.2a1.41 1.41 0 0 1 .6-.7c.5-.3 1-1.3 1.1-2.3l.7-3.6c.2-.8.1-1.5-.2-1.8h0l-.4-.2-15.5-8.9c.2.3.3 1 .1 1.8-.3 1.2-.5 2.4-.7 3.6-.1 1-.6 2-1.1 2.3-.3 0-.5.2-.6.6z" class="C"/><path d="M382 350.1c.2-.1.5-.5.7-.8l16 9.2c-.2.4-.4.7-.7.8-.2.1-.4.4-.6.7l-16-9.2c.2-.3.4-.5.6-.7z"/><path d="M383.1 366.5l16 9.2.3-.8c.2-.3.4-.7.4-1.1.1-.4.1-.9 0-1.2-.3-.9-.5-1.9-.7-2.9-.1-.8-.6-1.2-1.1-1-.2.1-.4.1-.5 0l-14.3-8.2.7 2.9c.2.7.1 1.8-.4 2.3-.2.3-.3.5-.4.8z" class="C"/><path d="M399.4 374.9c-.2.2-.3.5-.3.8l-16-9.2c0-.3.2-.6.3-.8.2-.3.3-.6.4-1l16 9.2c-.1.4-.2.7-.4 1z"/><path d="M437.1 318.6l1.8 1.3c.5.4 1.2.3 1.6-.3.3-.4.7-.5 1-.4h-.1l-4.8-2.7c0 .1 0 .2-.1.3-.2.7 0 1.5.6 1.8z" class="C"/><path d="M391.2 376.2h0c.1.1.2.1.4.2l15.4 8.9.1.1c-.4-.2-.5-.8-.3-1.3.2-.7 0-1.5-.5-1.8-.6-.4-1.2-.8-1.8-1.4-.4-.4-1.1-.3-1.6.2-.3.4-.6.5-.9.4l-.2-.1-11.1-6.3c0 .4.1.8.5 1.1z"/><path d="M416.4 383.4l2 1.2c-.2-.1-.3-.3-.3-.6 0-.6-.6-1-1.2-.8-.1.1-.3.1-.5.2zm13.7-8.6l.5.3v-.1c-.2-.2-.3-.3-.5-.2zm14.1-43.8c.1.8.6 1.2 1.1 1 .1-.1.3-.1.4-.1l-.1-.1-.2-.1-1.2-.7z" class="C"/><path d="M413.9 307.4l16 9.2c.3-.2.5-.6.6-.9.1-.4.4-.7.7-.9l-16-9.2c-.3.2-.5.5-.7.9-.1.3-.4.6-.6.9z"/><path d="M386.7 358.6c0 9.9 3.3 16.9 8.5 19.9a72.61 72.61 0 0 0 3.5 2c-5.1-3.1-8.4-10-8.4-19.8 0-18.1 11-39.2 24.6-47 5.9-3.4 11.3-3.8 15.5-1.6l-3-1.7c-4.3-2.5-10-2.3-16.1 1.3-13.6 7.7-24.6 28.7-24.6 46.9z" class="E"/><use xlink:href="#AG"/><g class="E"><path d="M415.2 305.5l16 9.2c.3-.2.6-.3.9-.2l1.6.3 2.3.4h.2c-.1 0-.1-.1-.3-.2l-14.5-8.3-.6-.4-.1-.1-.2-.1-.2-.2h-.1l-4-.8c-.4.1-.8.2-1 .4zm-12.6 5.1l16 9.2a1.96 1.96 0 0 1 .9-.9l4.6-2.6c.3-.2.6-.2.9-.1l-13.7-7.8-1.5-.8-.5-.3-.3-.2c-.2-.1-.6-.1-.9.1l-4.6 2.7c-.4 0-.7.3-.9.7z"/><use xlink:href="#AH"/><use xlink:href="#AI"/><path d="M381.1 352.3v6.1c0 .6.2 1 .4 1.2l1.6.9 14.3 8.2c-.2-.2-.4-.6-.4-1.1v-6.1c0-.5.1-1 .3-1.4h0l-16-9.2c0 .4-.2.9-.2 1.4zm2.2 15.5l2.3 4a.78.78 0 0 0 .4.4l1.1.6.4.2 3.4 1.9 11.1 6.3-.3-.3-2.3-4c-.2-.4-.3-.8-.2-1.3l-16-9.2c-.2.6-.1 1.1.1 1.4z"/></g><path d="M408 358.2c0-10.1 6.1-21.8 13.7-26.2s13.7.3 13.7 10.3c0 10.1-6.1 21.8-13.7 26.2s-13.7-.2-13.7-10.3z"/><path d="M410.6 356.7c0-8.2 5-17.7 11.1-21.2s11.1.2 11.1 8.4-5 17.7-11.1 21.2c-6.1 3.6-11.1-.2-11.1-8.4z" class="B"/><path d="M413.9 354.8c0-5.7 3.5-12.4 7.8-14.9s7.8.2 7.8 5.9-3.5 12.4-7.8 14.9-7.8-.2-7.8-5.9z" class="C"/><path d="M417.2 352.9c0-3.3 2-7.1 4.5-8.5s4.5.1 4.5 3.4-2 7.1-4.5 8.5-4.5-.1-4.5-3.4z" class="B"/><path d="M421.2 346.6c0-.4.2-.8.5-.9.3-.2.5 0 .5.4s-.2.8-.5.9-.5-.1-.5-.4zm-2 2.8c-.2-.1-.2-.6 0-.9.2-.4.5-.5.7-.4s.2.6 0 .9-.5.5-.7.4zm-.5 3.3c-.3.2-.5 0-.5-.4s.2-.8.5-.9c.3-.2.5 0 .5.4 0 .3-.2.8-.5.9zm1.2 2c-.2.4-.5.5-.7.4s-.2-.6 0-.9c.2-.4.5-.5.7-.4s.2.5 0 .9zm2.3-.6c0 .4-.2.8-.5.9-.3.2-.5 0-.5-.4s.2-.8.5-.9c.3-.2.5 0 .5.4zm2-2.8c.2.1.2.6 0 .9-.2.4-.5.5-.7.4s-.2-.6 0-.9c.2-.4.5-.6.7-.4zm.5-3.4c.3-.2.5 0 .5.4s-.2.8-.5.9c-.3.2-.5 0-.5-.4 0-.3.3-.7.5-.9zm-1.2-1.9c.2-.4.5-.5.7-.4s.2.6 0 .9c-.2.4-.5.5-.7.4s-.2-.6 0-.9zm-3.6 5.4c0-1.3.8-2.9 1.8-3.5s1.8 0 1.8 1.4c0 1.3-.8 2.9-1.8 3.5-1 .5-1.8-.1-1.8-1.4z" class="D"/><use xlink:href="#AJ" class="B"/><use xlink:href="#AJ" class="H"/><path d="M444.1 386.9c.5-.3 1-1.3 1.1-2.3l.7-3.6c.2-.8.1-1.5-.1-1.8 0 0-.3-.2-.4-.2-.3-.2-.4-1-.1-1.9l2.3-6.6c.3-1 1-1.7 1.4-1.6s1.2-.6 1.6-1.6l1.8-3.4c.5-.9.7-2 .5-2.4-.3-.4 0-1.5.6-2.2l4-5.3c.5-.7 1.1-1 1.4-.8.1 0 .7.4.7.4.3 0 .7-.3 1.1-.6l2.4-2.3c.7-.6 1.2-1.6 1.2-2.2 0-.7.6-1.6 1.2-2l4.6-2.6c.4-.2.7-.2.9-.1l2.3 1.3c.6-.1 1.1-.3 1.7-.3.6-.1 1.4-.7 1.6-1.5.3-.7.9-1.3 1.5-1.2l4 .8c.1 0 .2.1.3.1.4.2 15.9 9.1 16 9.2.3.2.5.7.4 1.2l4.9 2.8.3.3 2.3 4c.3.6.3 1.5-.2 2.1-.4.6-.6 1.6-.4 2.4.3.9.5 1.9.7 2.9 0 0 1.5.9 1.6.9.3.1.4.6.4 1.1v6.1c0 .9-.4 1.9-.9 2.2s-1 1.3-1.1 2.3c-.2 1.2-.4 2.4-.7 3.6-.2.8-.1 1.5.1 1.8l.3.2c.3.2.4 1 .1 1.9l-2.3 6.6c-.3 1-1 1.7-1.4 1.6s-1.1.6-1.6 1.6l-1.8 3.5c-.5.9-.7 1.9-.5 2.4.2.4 0 1.4-.6 2.2l-4 5.3c-.5.7-1.1 1-1.4.8-.1 0-.6-.3-.6-.3-.3 0-.7.3-1.1.7-.8.8-1.6 1.6-2.5 2.3-.7.6-1.2 1.5-1.2 2.2 0 .6-.6 1.5-1.2 1.9l-4.6 2.6c-.4.2-.7.3-.9.1-.2-.1-2-1.2-2-1.2-.7.2-1.3.3-1.9.4s-1.4.7-1.6 1.4-.9 1.2-1.5 1.1l-4-.8c-.1 0-.2-.1-.3-.1-.4-.2-15.9-9.1-16-9.2-.4-.2-.5-.7-.4-1.2l-4.8-2.8a1.38 1.38 0 0 1-.3-.4l-2.3-4c-.3-.6-.3-1.5.2-2.1.4-.6.6-1.6.4-2.4-.3-.9-.5-1.9-.7-2.9l-1.6-.9c-.3-.1-.4-.6-.4-1.1v-6.1c-.1-1 .3-2 .8-2.3z" class="E"/><path d="M459.2 404.4v-6.1c0-.9.4-1.9.9-2.2s1-1.3 1.1-2.3l.7-3.6c.2-1 .1-1.9-.4-1.9-.4-.1-.5-.9-.2-1.9l2.3-6.6c.3-1 1-1.7 1.4-1.6s1.2-.6 1.6-1.6l1.8-3.4c.5-.9.7-2 .5-2.4-.3-.4 0-1.5.6-2.2l4-5.3c.6-.8 1.3-1.1 1.5-.6.3.4 1 .2 1.6-.4l2.4-2.3c.7-.6 1.2-1.6 1.2-2.2 0-.7.6-1.6 1.2-2l4.6-2.6c.7-.4 1.2-.2 1.2.5s.5 1 1.2.8l2.4-.5c.6-.1 1.4-.7 1.6-1.5.3-.7.9-1.3 1.5-1.2l4 .8c.6.1.9.8.6 1.6-.3.7 0 1.6.5 1.9l1.8 1.3c.5.4 1.2.3 1.6-.3s1.1-.6 1.4 0l2.3 4c.3.6.3 1.5-.2 2.1-.4.6-.6 1.6-.4 2.4.3.9.5 1.9.7 2.9.1.8.6 1.3 1.1 1s.9.2.9 1.1v6.1c0 .9-.4 1.9-.9 2.2s-1 1.3-1.1 2.3l-.7 3.6c-.2 1-.1 1.9.4 1.9.4.1.5.9.2 1.9l-2.3 6.6c-.3 1-1 1.7-1.4 1.6s-1.1.6-1.6 1.6l-1.8 3.5c-.5.9-.7 1.9-.5 2.4.2.4 0 1.4-.6 2.2l-4 5.3c-.6.8-1.3 1.1-1.5.7s-.9-.2-1.6.5l-2.5 2.3c-.7.6-1.2 1.5-1.2 2.2 0 .6-.6 1.5-1.2 1.9l-4.6 2.6c-.7.4-1.2.2-1.2-.4s-.5-.9-1.2-.8c-.8.3-1.7.4-2.5.5-.6.1-1.4.7-1.6 1.4s-.9 1.2-1.5 1.1l-4-.8c-.6-.1-.9-.8-.6-1.5.2-.7 0-1.5-.5-1.8-.6-.4-1.2-.9-1.8-1.4-.5-.4-1.1-.3-1.6.2-.4.6-1 .6-1.4 0l-2.3-4c-.3-.6-.3-1.5.2-2.1.4-.6.6-1.6.4-2.4-.3-.9-.5-1.9-.7-2.9-.1-.8-.6-1.3-1.1-1-.3.2-.7-.3-.7-1.2z" class="D"/><use xlink:href="#AE" x="62.1" y="36.8" class="C"/><path d="M463.8 349.9l16 9.2c.3-.5.5-1 .5-1.4 0-.3.1-.7.4-1.1l-16-9.2c-.2.4-.4.7-.4 1.1s-.2.9-.5 1.4z"/><g class="C"><path d="M459.6 353.6l15.2 8.7h.1c.1 0 .1.1.2.2.1.2.3.3.5.2.3 0 .7-.3 1.1-.6l2.4-2.3c.3-.2.5-.5.7-.9l-16-9.2c-.2.3-.5.6-.7.8l-2.4 2.3c-.4.6-.8.8-1.1.8z"/><use xlink:href="#AF" x="62.1" y="36.8"/></g><path d="M464.5 378.3l-16-9.2c.2-.1.4-.2.5-.2h.2l16 9.2h-.2c-.1 0-.3 0-.5.2zm-11.6-16.7c-.1-.1-.1-.4-.1-.6l16 9.2c0 .2 0 .4.1.6s.1.5.1.8l-16-9.2c.1-.3 0-.6-.1-.8z"/><path d="M443.5 387.7l16 9.2a1.41 1.41 0 0 1 .6-.7c.5-.3 1-1.3 1.1-2.3l.7-3.6c.2-.8.1-1.5-.2-1.8h0l-.4-.2-15.5-8.9c.2.3.3 1 .1 1.8-.3 1.2-.5 2.4-.7 3.6-.1 1-.6 2-1.1 2.3-.2 0-.4.2-.6.6z" class="C"/><path d="M444.1 386.9c.2-.1.5-.5.7-.8l16 9.2c-.2.4-.4.7-.7.8-.2.1-.4.4-.6.7l-16-9.2c.2-.3.4-.5.6-.7z"/><path d="M445.2 403.4l16 9.2.3-.8c.2-.3.4-.7.4-1.1.1-.4.1-.9 0-1.2-.3-.9-.5-1.9-.7-2.9-.1-.8-.6-1.2-1.1-1-.2.1-.4.1-.5 0l-14.3-8.2.7 2.9c.2.7.1 1.8-.4 2.3-.2.2-.4.5-.4.8z" class="C"/><path d="M461.5 411.7c-.2.2-.3.5-.3.8l-16-9.2c0-.3.2-.6.3-.8.2-.3.3-.6.4-1l16 9.2c-.1.4-.2.8-.4 1z"/><path d="M499.1 355.5l1.8 1.3c.5.4 1.2.3 1.6-.3.3-.4.7-.5 1-.4h-.1l-4.8-2.7c0 .1 0 .2-.1.3-.1.6.1 1.4.6 1.8z" class="C"/><path d="M453.3 413h0c.1.1.2.1.4.2l15.4 8.9.1.1c-.4-.2-.5-.8-.3-1.3.2-.7 0-1.5-.5-1.8-.6-.4-1.2-.8-1.8-1.4-.4-.4-1.1-.3-1.6.2-.3.4-.6.5-.9.4l-.2-.1-11.1-6.3c-.1.4.1.9.5 1.1z"/><path d="M478.5 420.2l2 1.2c-.2-.1-.3-.3-.3-.6 0-.6-.6-1-1.2-.8-.1.1-.3.1-.5.2zm13.7-8.6l.5.3v-.1c-.2-.2-.3-.2-.5-.2zm14.1-43.8c.1.8.6 1.2 1.1 1 .1-.1.3-.1.4-.1l-.1-.1-.2-.1-1.2-.7z" class="C"/><path d="M476 344.2l16 9.2c.3-.2.5-.6.6-.9.1-.4.4-.7.7-.9l-16-9.2c-.3.2-.5.5-.7.9-.1.3-.4.6-.6.9z"/><path d="M448.7 395.4c0 9.9 3.3 16.9 8.5 19.9a72.61 72.61 0 0 0 3.5 2c-5.1-3.1-8.4-10-8.4-19.8 0-18.1 11-39.2 24.6-47 5.9-3.4 11.3-3.8 15.5-1.6l-3-1.7c-4.3-2.5-10-2.3-16.1 1.3-13.5 7.7-24.6 28.8-24.6 46.9z" class="E"/><use xlink:href="#AG" x="62.1" y="36.8"/><g class="E"><path d="M477.3 342.3l16 9.2c.3-.2.6-.3.9-.2l1.6.3 2.3.4h.2c-.1 0-.1-.1-.3-.2l-14.5-8.3-.6-.4-.1-.1-.2-.1-.2-.2h-.1l-4-.8c-.5.1-.8.2-1 .4zm-12.7 5.1l16 9.2a1.96 1.96 0 0 1 .9-.9l4.6-2.6c.3-.2.6-.2.9-.1l-13.7-7.8-1.5-.8-.5-.3-.3-.2c-.2-.1-.6-.1-.9.1l-4.6 2.7c-.3 0-.6.3-.9.7z"/><use xlink:href="#AH" x="62.1" y="36.8"/><use xlink:href="#AI" x="62.1" y="36.8"/><path d="M443.2 389.1v6.1c0 .6.2 1 .4 1.2l1.6.9 14.3 8.2c-.2-.2-.4-.6-.4-1.1v-6.1c0-.5.1-1 .3-1.4h0l-16-9.2c-.1.4-.2.9-.2 1.4zm2.2 15.6l2.3 4a.78.78 0 0 0 .4.4l1.1.6.4.2 3.4 1.9 11.1 6.3-.3-.3-2.3-4c-.2-.4-.3-.8-.2-1.3l-16-9.2c-.2.5-.1 1 .1 1.4zm24.7-9.7c0-10.1 6.1-21.8 13.7-26.2s13.7.3 13.7 10.3c0 10.1-6.1 21.8-13.7 26.2-7.6 4.5-13.7-.2-13.7-10.3z"/></g><path d="M472.7 393.5c0-8.2 5-17.7 11.1-21.2s11.1.2 11.1 8.4-5 17.7-11.1 21.2c-6.1 3.6-11.1-.2-11.1-8.4z" class="B"/><path d="M476 391.6c0-5.7 3.5-12.4 7.8-14.9s7.8.2 7.8 5.9-3.5 12.4-7.8 14.9-7.8-.1-7.8-5.9z" class="C"/><path d="M479.3 389.7c0-3.3 2-7.1 4.5-8.5s4.5.1 4.5 3.4-2 7.1-4.5 8.5-4.5-.1-4.5-3.4z" class="B"/><path d="M483.3 383.4c0-.4.2-.8.5-.9.3-.2.5 0 .5.4s-.2.8-.5.9-.5-.1-.5-.4zm-2 2.8c-.2-.1-.2-.6 0-.9s.5-.5.7-.4.2.6 0 .9-.5.5-.7.4zm-.5 3.3c-.3.2-.5 0-.5-.4s.2-.8.5-.9c.3-.2.5 0 .5.4s-.3.8-.5.9zm1.2 2c-.2.4-.5.5-.7.4s-.2-.6 0-.9.5-.5.7-.4.2.5 0 .9zm2.3-.6c0 .4-.2.8-.5.9-.3.2-.5 0-.5-.4s.2-.8.5-.9.5 0 .5.4zm2-2.8c.2.1.2.6 0 .9-.2.4-.5.5-.7.4s-.2-.6 0-.9c.2-.4.5-.6.7-.4zm.5-3.4c.3-.2.5 0 .5.4s-.2.8-.5.9c-.3.2-.5 0-.5-.4s.2-.7.5-.9zm-1.2-1.9c.2-.4.5-.5.7-.4s.2.6 0 .9c-.2.4-.5.5-.7.4s-.2-.5 0-.9zm-3.6 5.4c0-1.3.8-2.9 1.8-3.5s1.8 0 1.8 1.4c0 1.3-.8 2.9-1.8 3.5s-1.8-.1-1.8-1.4z" class="D"/><path d="M399 308.7l2.4-6.9 20.4-59.1 61.9 35.6-23 66.1-61.7-35.7zm-7.1 2v20.5l13.9 8 59.7 34.5c4.6-9 11-16.7 18.2-20.8 11.1-6.4 20.5-2.3 23.9 9l19.4-11.2V254l-73.6-42.5-31 17.9h-.1l-1.7 1c-.1.1-.2.1-.3.2-1.1.8-2.2 2-3 3.5a12.2 12.2 0 0 0-.7 1.7l-24 71.4c-.5 1.3-.7 2.5-.7 3.5zm82 30.6l20-61c.5-1.5 1.4-2.8 2.4-3.3l24.1-13.9c.5-.3 1-.4 1.4-.3a3.73 3.73 0 0 1 .2 1.2v50.5c0 1.5-.9 3.2-2 3.9l-44.9 25.9c-.5.3-1 .4-1.4.3a6.3 6.3 0 0 1 .2-3.3z" class="B"/><path d="M453.3 211.6l-31 17.9h-.1l-1.7 1c-.1.1-.2.1-.3.2-1.1.8-2.2 2-3 3.5-.3.5-.5 1.1-.7 1.7l-24 71.4a10.04 10.04 0 0 0-.6 3.3v20.5l13.9 8 59.7 34.5c4.6-9 11-16.7 18.1-20.8 11.1-6.4 20.5-2.3 23.9 9l19.4-11.2V254l-73.6-42.4zm7.4 132.7L399 308.7l2.4-6.9 20.4-59.1 61.9 35.6-23 66zm61.4-29.9c0 1.5-.9 3.2-2 3.9l-44.9 25.9c-.5.3-1 .4-1.4.3-.3-.8-.3-1.9.1-3.2l20-61c.5-1.5 1.4-2.8 2.4-3.3l24.1-13.9c.5-.3 1-.4 1.4-.3a3.73 3.73 0 0 1 .2 1.2v50.4z" class="H"/><path d="M483.6 278.2l-22.9 66.1-61.7-35.6 2.4-6.9 20.4-59.1 26.7 15.4z" class="D"/><g class="F"><path d="M419 231.7l73.6 42.5c.5-.5 1-.9 1.5-1.2l32.8-19-73.6-42.5-31 17.9h-.1l-1.7 1c-.1.1-.2.1-.3.2l-1.2 1.1z" class="N"/><path d="M422.6 229.3l-2.1 1.2c-1.7 1-3.2 3.1-4 5.5l-24 71.4a10.04 10.04 0 0 0-.6 3.3v1.9l24-71.5c2.6-7.4 3.3-9.9 6.7-11.8z" class="J"/></g><path d="M441.3 344.1l-24.5-14c-1.4-.8-2.7-.9-3.7-.3s-1.6 1.8-1.6 3.4v13.6c0 3 2.1 6.6 4.7 8.2l24.5 14c.8.5 1.6.7 2.3.7.5 0 1-.1 1.5-.4 1-.6 1.6-1.8 1.6-3.4v-13.6c-.1-3.1-2.2-6.7-4.8-8.2zm-28.3 4.5c-.2-.6-.3-1.2-.3-1.7v-.4l31.9 18.3h.1v1.2c0 .3 0 .6-.1.8L413 348.6zm31.7 7.7L412.8 338h-.1v-2l31.9 18.3h.1v2zm-32-16.8l31.9 18.3h.1v2l-31.9-18.3h-.1v-2zm0 3.5l31.9 18.3h.1v2L412.8 345h-.1v-2zm32 9.3v.6l-31.9-18.3h-.1v-1.3c0-.2 0-.4.1-.7l31.7 18.2c.2.4.2 1 .2 1.5zm-31-21.4c.2-.1.5-.2.8-.2.5 0 1 .2 1.6.5l24.5 14a8.34 8.34 0 0 1 3.2 3.7l-30.6-17.5c.2-.2.3-.4.5-.5zm27.6 37l-24.5-14c-1.2-.7-2.3-2-3.1-3.4l30.4 17.4c-.1.1-.2.2-.4.3-.6.4-1.4.2-2.4-.3z" class="P"/><path d="M440.4 344.5l-24.5-14c-1.4-.8-2.7-.9-3.7-.3s-1.6 1.8-1.6 3.4v13.6c0 3 2.1 6.6 4.7 8.2l24.5 14c.8.5 1.6.7 2.3.7.5 0 1-.1 1.5-.4 1-.6 1.6-1.8 1.6-3.4v-13.6c-.1-3-2.1-6.6-4.8-8.2zm-28.3 4.6c-.2-.6-.3-1.2-.3-1.7v-.4l31.9 18.3h.1v1.2c0 .3 0 .6-.1.8l-31.6-18.2zm31.8 7.7L412 338.5h-.1v-2l31.9 18.3h.1v2zm-32-16.9l31.9 18.3h.1v2l-32-18.2h-.1v-2.1zm0 3.5l31.9 18.3h.1v2L412 345.4h-.1v-2zm32 9.3v.6l-32-18.3h-.1v-1.3c0-.2 0-.4.1-.7l31.7 18.2c.2.5.3 1 .3 1.5zm-31.1-21.3c.2-.1.5-.2.8-.2.5 0 1 .2 1.6.5l24.5 14a8.34 8.34 0 0 1 3.2 3.7l-30.6-17.5c.2-.3.4-.4.5-.5zm27.6 36.9l-24.5-14c-1.2-.7-2.3-2-3.1-3.4l30.4 17.4a1.38 1.38 0 0 1-.4.3c-.5.4-1.4.3-2.4-.3z" class="D"/><path d="M468.7 356.9v5.2c0 .5-.4 1.2-.8 1.4l-1.4.8c-.5.3-1.2.3-1.6 0l-10.6-6.1c-.5-.3-.8-.9-.8-1.4v-5.2c0-.5.4-.7.8-.5l10.6 6.1c.5.3 1.2.3 1.6 0l1.4-.8c.4-.2.8 0 .8.5zm-76.8-41.7l12.4 7.2v7l-12.4-7.1z" fill="#f0f0f0"/><path d="M455.2 210.5l73.5 42.5-1.8 1-73.6-42.4z" class="D"/><path d="M465.4 353.2v20.5c4.6-9 11-16.7 18.2-20.8 11.1-6.4 20.5-2.3 23.9 9l19.4-11.2V254l-32.8 19c-1.7 1-3.2 3.1-4 5.5l-24 71.4c-.5 1.1-.7 2.2-.7 3.3zm8.5-11.9l20-61c.5-1.5 1.4-2.8 2.4-3.3l24.1-13.9c.5-.3 1-.4 1.4-.3a3.73 3.73 0 0 1 .2 1.2v50.5c0 1.5-.9 3.2-2 3.9l-44.9 25.9c-.5.3-1 .4-1.4.3a6.3 6.3 0 0 1 .2-3.3z" class="B"/><path d="M494.1 273c-1.7 1-3.2 3.1-4 5.5l-24 71.4a10.04 10.04 0 0 0-.6 3.3v20.5c4.6-9 11-16.7 18.1-20.8 11.1-6.4 20.5-2.3 23.9 9l19.4-11.2V254l-32.8 19zm28 41.4c0 1.5-.9 3.2-2 3.9l-44.9 25.9c-.5.3-1 .4-1.4.3-.3-.8-.3-1.9.1-3.2l20-61c.5-1.5 1.4-2.8 2.4-3.3l24.1-13.9c.5-.3 1-.4 1.4-.3a3.73 3.73 0 0 1 .2 1.2v50.4z" class="P"/><path d="M496.1 271.8L494 273c-1.7 1-3.2 3.1-4 5.5l-24 71.4a10.04 10.04 0 0 0-.6 3.3v1.9l24-71.5c2.6-7.5 3.4-9.9 6.7-11.8z" class="F J"/><path d="M522.1 263.9v50.5c0 1.5-.9 3.2-2 3.9l-44.9 25.9c-.5.3-1 .4-1.4.3-.3-.8-.3-1.9.1-3.2l20-61c.5-1.5 1.4-2.8 2.4-3.3l24.1-13.9c.5-.3 1-.4 1.4-.3.2.2.3.6.3 1.1z" class="E"/><path d="M337.7 438l-4 2.3a1.71 1.71 0 0 1-1.4 0l-1.3-.7c-.4-.2-.6-.8-.6-1.2l13.2-62.6c.1-.5.5-1 .9-1.2l4-2.3a1.71 1.71 0 0 1 1.4 0l1.3.7c.4.2.6.8.6 1.2l-13.2 62.6c-.1.4-.5 1-.9 1.2z" class="D"/><path d="M337.7 438l-4 2.3c-.4.2-.6.1-.6-.4l13.2-62.6c.1-.5.5-1 .9-1.2l4-2.3c.4-.2.6-.1.6.4l-13.2 62.6c-.1.4-.5 1-.9 1.2z" class="C"/><path d="M335.6 433.9l1.2-5.6 2.7-1.5 25.1 14.5 1.2 6.9-2.7 1.6z" class="E"/><path d="M363.1 449.8l-27.5-15.9 1.2-5.6 25.1 14.5z" class="D"/><g class="E"><path d="M367.6 455.2l-4 2.3a1.71 1.71 0 0 1-1.4 0l-1.3-.7c-.4-.2-.8-.8-.9-1.2l-13.3-78.3c-.1-.5.2-1 .6-1.2l4-2.3a1.71 1.71 0 0 1 1.4 0l1.3.7c.4.2.8.8.9 1.2l13.3 78.3c0 .4-.2 1-.6 1.2z"/><path d="M346.7 377.3l.5 3 12.8 75.3c.1.5.5 1 .9 1.2l1.3.7a1.71 1.71 0 0 0 1.4 0l4-2.3c.4-.2.7-.8.6-1.2L355 375.7c-.1-.5-.5-1-.9-1.2l-1.3-.7a1.71 1.71 0 0 0-1.4 0l-4 2.3c-.5.2-.8.7-.7 1.2z"/></g><path d="M354.9 375.7l13.3 78.3c.1.5-.2 1-.6 1.2l-4 2.3c-.4.2-.8 0-.9-.4l-13.3-78.3c-.1-.5.2-1 .6-1.2l4-2.3c.4-.2.8 0 .9.4z" class="D"/><use xlink:href="#AK" class="G"/><use xlink:href="#AL" class="E"/><path d="M340.6 373.9c0-.3.2-.6.6-.8l5.3-3.1v9.2c-.5 0-1-.1-1.4-.3l-3.9-2.3c-.4-.2-.6-.5-.6-.8v-1.9z" class="C"/><g class="D"><path d="M348 377l8-4.6c.8-.5.8-1.2 0-1.7l-3.9-2.3c-.8-.5-2.1-.5-2.9 0l-8 4.6c-.8.5-.8 1.2 0 1.7l3.9 2.3c.8.4 2.1.4 2.9 0z"/><path d="M353 364.2h0l-2.7-1.6c-.8-.4-1.8-.3-2.9.4-2.2 1.4-3.9 4.7-3.8 7.4.1 1.3.6 2.2 1.3 2.6h0l2.7 1.6c.8.4 1.8.3 2.9-.4 2.2-1.4 3.9-4.7 3.8-7.4 0-1.3-.5-2.2-1.3-2.6z"/></g><path d="M347.6 374.6L345 373c-.8-.4-1.3-1.3-1.3-2.6-.1-1.2.3-2.5.8-3.7l2.7 1.6c-.6 1.2-.9 2.5-.8 3.7-.1 1.3.4 2.2 1.2 2.6z" class="C"/><path d="M350.6 374.2c2.2-1.4 3.9-4.7 3.8-7.4-.1-2.6-2-3.6-4.3-2.2-2.2 1.4-3.9 4.7-3.8 7.4s2 3.7 4.3 2.2z" class="E"/><use xlink:href="#AM" class="C"/><path d="M350.5 365.3c.4-.3.9-.5 1.3-.5.3.5.3 1.1.4 1.4.1 2.3-1.5 5.4-3.4 6.6-.4.3-.9.5-1.3.5-.3-.5-.3-1.1-.4-1.4-.1-2.2 1.5-5.3 3.4-6.6z" class="B"/><path d="M275.3 474l-4 2.3a1.71 1.71 0 0 1-1.4 0l-1.3-.7c-.4-.2-.6-.8-.6-1.2l13.2-62.6c.1-.5.5-1 .9-1.2l4-2.3a1.71 1.71 0 0 1 1.4 0l1.3.7c.4.2.6.8.6 1.2l-13.2 62.6c-.1.5-.5 1-.9 1.2z" class="D"/><path d="M275.3 474l-4 2.3c-.4.2-.6.1-.6-.4l13.2-62.6c.1-.5.5-1 .9-1.2l4-2.3c.4-.2.6-.1.6.4l-13.2 62.6c-.1.5-.5 1-.9 1.2z" class="C"/><path d="M273.1 470l1.2-5.5 2.7-1.6 25.1 14.5 1.2 6.9-2.7 1.6z" class="E"/><path d="M300.6 485.9L273.1 470l1.2-5.5 25.1 14.5z" class="D"/><g class="E"><path d="M305.1 491.3l-4 2.3a1.71 1.71 0 0 1-1.4 0l-1.3-.7c-.4-.2-.8-.8-.9-1.2l-13.3-78.3c-.1-.5.2-1 .6-1.2l4-2.3a1.71 1.71 0 0 1 1.4 0l1.3.7c.4.2.8.8.9 1.2l13.3 78.3c.1.4-.2.9-.6 1.2z"/><path d="M284.3 413.3l.5 3 12.8 75.3c.1.5.5 1 .9 1.2l1.3.7a1.71 1.71 0 0 0 1.4 0l4-2.3c.4-.2.7-.8.6-1.2l-13.2-78.3c-.1-.5-.5-1-.9-1.2l-1.3-.7a1.71 1.71 0 0 0-1.4 0l-4 2.3c-.5.2-.8.8-.7 1.2z"/></g><path d="M292.4 411.8l13.3 78.3c.1.5-.2 1-.6 1.2l-4 2.3c-.4.2-.8 0-.9-.4L287 414.9c-.1-.5.2-1 .6-1.2l4-2.3c.4-.3.7-.1.8.4z" class="D"/><use xlink:href="#AK" x="-62.4" y="36" class="G"/><use xlink:href="#AL" x="-62.4" y="36" class="E"/><path d="M278.2 409.9c0-.3.2-.6.6-.8l5.3-3.1v9.2c-.5 0-1-.1-1.4-.3l-3.9-2.3c-.4-.2-.6-.5-.6-.8v-1.9z" class="C"/><g class="D"><path d="M285.6 413l8-4.6c.8-.5.8-1.2 0-1.7l-3.9-2.3c-.8-.5-2.1-.5-2.9 0l-8 4.6c-.8.5-.8 1.2 0 1.7l3.9 2.3c.8.5 2.1.5 2.9 0z"/><path d="M290.6 400.2h0l-2.7-1.6c-.8-.4-1.8-.3-2.9.4-2.2 1.4-3.9 4.7-3.8 7.4.1 1.3.6 2.2 1.3 2.6h0l2.7 1.6c.8.4 1.8.3 2.9-.4 2.2-1.4 3.9-4.7 3.8-7.4 0-1.2-.5-2.2-1.3-2.6z"/></g><path d="M285.1 410.7l-2.6-1.6c-.8-.4-1.3-1.3-1.3-2.6-.1-1.2.3-2.5.8-3.7l2.7 1.6c-.6 1.2-.9 2.5-.8 3.7 0 1.3.5 2.2 1.2 2.6z" class="C"/><path d="M288.1 410.3c2.2-1.4 3.9-4.7 3.8-7.4-.1-2.6-2-3.6-4.3-2.2-2.2 1.4-3.9 4.7-3.8 7.4.2 2.6 2.1 3.6 4.3 2.2z" class="E"/><use xlink:href="#AM" x="-62.4" y="36.1" class="C"/><path d="M288.1 401.4c.4-.3.9-.5 1.3-.5.3.5.3 1.1.4 1.4.1 2.3-1.5 5.4-3.4 6.6-.4.3-.9.5-1.3.5-.3-.5-.3-1.1-.4-1.4-.1-2.3 1.4-5.3 3.4-6.6zm-6.7 22.1l84.2-48.6-1.4-.8-84.1 48.6z" class="B"/><path opacity=".4" d="M281.4 423.5l84.2-48.6-1.4-.8-84.1 48.6z" class="F"/><path d="M281.4 423.5l4.1 24.3 84.1-48.6-4-24.3z" class="B"/><path d="M280.1 422.7l4 24.3 1.4.8-4.1-24.3z" class="M"/><path d="M280.9 427.8l2.3 13.4 1.3.8-2.2-13.5z" class="B"/><path d="M280.9 427.8l2.3 13.4 1.3.8-2.2-13.5" class="P"/><path d="M289.1 419l-3.6 28.8-4.1-24.3zm72.8-15.3l3.7-28.8 4 24.3zm-62.3 35.9l3.7-28.7-8.4 4.8-3.6 28.7zm14.2-8.1l3.6-28.8-8.4 4.8-3.6 28.8zm14.1-8.2l3.6-28.7-8.3 4.8-3.7 28.7zm14.1-8.1l3.7-28.8-8.4 4.8-3.6 28.8zm14.1-8.2l3.7-28.8-8.4 4.9-3.6 28.7z" class="T"/><path d="M294.9 415.7l-1.4-.8 8.4-4.8 1.4.8zm14.1-8.2l-1.3-.8 8.3-4.8 1.4.8zm14.2-8.1l-1.4-.8 8.4-4.8 1.3.8zm14.1-8.2l-1.4-.8 8.4-4.8 1.4.8zm14.1-8.1l-1.3-.8 8.3-4.8 1.4.7zm-70 40.4l-1.3-.8 7.7-4.5 1.3.8z" class="I"/><path d="M282.3 428.5l2.2 13.5 84.2-48.6-2.3-13.4z" class="B"/><g class="D"><path d="M288 436.7c-.5-.3-.8-.8-.9-1.6l-.9-5.8c0-.3.1-.5.5-.7l.4-.2c.3-.2.5-.2.6.1l.9 5.7c.1.3.2.6.3.7.2.1.4.1.6 0s.4-.3.5-.6.1-.6.1-.9l-.9-5.7c0-.3.1-.5.5-.7l.3-.2c.3-.2.5-.2.6.1l.9 5.8c.1.8 0 1.6-.3 2.3s-.8 1.2-1.5 1.6c-.6.3-1.2.3-1.7.1z"/><use xlink:href="#AN"/><path d="M298.1 431.4c-.1 0-.1-.2-.1-.3l-1.2-7.8v-.4c0-.1.1-.2.2-.3l1.7-1c.8-.4 1.4-.4 1.9.1s.8 1.5 1.1 3c.2 1.5.2 2.7 0 3.6-.3.9-.8 1.6-1.5 2.1l-1.7 1h-.4zm1.7-2.6c.3-.2.5-.5.6-1s0-1.2-.1-2.2c-.2-1-.3-1.7-.5-2s-.5-.4-.8-.2l-.6.3.9 5.5.5-.4zm3.5-.4c-.1 0-.1-.2-.1-.3l-1.2-7.8v-.4c0-.1.1-.2.2-.3l2.6-1.5c.1-.1.2 0 .2 0 .1.1.1.2.1.4l.1.4v.5c0 .1-.1.2-.2.3l-1.6.9.3 1.8 1.4-.8c.1-.1.2 0 .2 0 .1.1.1.2.1.4l.1.4v.5c0 .1-.1.2-.2.3l-1.4.8.3 2 1.6-.9c.1-.1.2 0 .2 0 .1.1.1.2.1.4l.1.4v.5c0 .1-.1.2-.2.3l-2.6 1.5c0 .3-.1.3-.1.2zm3.9-2.5l-1.3-7.9v-.4c0-.1.1-.2.3-.3l1.5-.9c.5-.3 1-.4 1.4-.2s.7.7.8 1.6c.2 1 0 1.9-.5 2.6v.1c.1 0 .3.1.4.3s.3.4.4.6l.9 2.1.1.1c0 .2-.1.4-.5.7l-.3.2c-.3.2-.5.2-.6 0l-.9-2.1c-.1-.2-.2-.2-.2-.3-.1 0-.2 0-.3.1l-.2.1.5 2.8c0 .3-.1.5-.5.7l-.3.2c-.5.2-.7.1-.7-.1zm1.1-5.8c.1-.1.2-.2.3-.5.1-.2.1-.5 0-.9s-.1-.6-.3-.7c-.1-.1-.3-.1-.4 0l-.5.3.3 2.1.6-.3zm5 1.6c-.5-.5-.9-1.5-1.1-3.1-.2-1.5-.2-2.7.1-3.7s.8-1.7 1.7-2.2c.3-.2.5-.3.8-.3.2 0 .3.1.4.4s.1.6 0 .9c0 .3-.1.5-.3.5s-.4.1-.6.2c-.4.2-.6.6-.7 1.2s-.1 1.3.1 2.3c.1.9.3 1.6.6 2 .2.4.6.4 1 .2.1-.1.2-.1.3-.2l.4-.4c.1-.1.2 0 .3.2s.2.4.2.8v.4c0 .1-.1.2-.2.3l-.4.4c-.2.1-.3.3-.5.4-.9.2-1.6.2-2.1-.3zm2.8-5.4c-.5-3 .1-4.9 1.6-5.8.8-.4 1.4-.4 1.9.1s.9 1.5 1.1 3.1c.2 1.5.2 2.8-.1 3.7-.3 1-.8 1.7-1.6 2.1-1.4.9-2.4-.2-2.9-3.2zm3.2 1c.1-.2.2-.6.2-1 0-.5-.1-1-.2-1.8-.1-.7-.2-1.3-.4-1.7-.1-.4-.3-.6-.4-.7-.2-.1-.3-.1-.6 0-.2.1-.4.3-.5.6-.1.2-.2.6-.2 1 0 .5.1 1 .2 1.8.1.7.2 1.3.4 1.7a1.4 1.4 0 0 0 .4.7c.2.1.3.1.6 0 .3-.2.4-.4.5-.6z"/><use xlink:href="#AN" x="29.5" y="-17"/><path d="M328 414.2c-.3 0-.5 0-.7-.1-.1-.1-.2-.2-.2-.4v-.8c0-.3.1-.5.2-.5h.5c.3 0 .5 0 .7-.1s.3-.3.5-.5c.1-.2.1-.5.1-.8 0-.2-.1-.4-.2-.5s-.2-.2-.3-.2-.3-.1-.5-.1c-.5-.1-.9-.3-1.2-.6s-.5-.8-.6-1.4c-.1-.8 0-1.4.2-2.1.3-.6.7-1.1 1.3-1.4.2-.1.4-.2.7-.2h.6c.1 0 .2.2.2.3v.7c0 .3-.1.5-.2.5h-.3c-.3 0-.5.1-.6.1-.2.1-.4.3-.5.5s-.1.4-.1.6c0 .3.1.5.3.6.1.1.4.2.6.2h.2c.5.1.8.3 1.1.6.2.3.4.7.5 1.4.1.5.1.9 0 1.4s-.2.9-.5 1.3a4.74 4.74 0 0 1-1 1c-.2.3-.5.4-.8.5zm4.2-2.8l-1.1-6.8-1 .6c-.1.1-.2 0-.2 0-.1-.1-.1-.2-.1-.4l-.1-.4v-.5c0-.1.1-.2.2-.3l3.4-2c.1-.1.2 0 .2 0 .1.1.1.2.1.4l.1.4v.5c0 .1-.1.2-.2.3l-1 .6 1.1 6.8c0 .3-.1.5-.5.7l-.4.2c-.3.2-.5.2-.5-.1zm3.2-1.8l-1.3-7.9v-.4c0-.1.1-.2.3-.3l1.5-.9c.5-.3 1-.4 1.4-.2s.7.7.8 1.6c.2 1 0 1.9-.5 2.6v.1c.1 0 .3.1.4.3s.3.4.4.6l.9 2.1.1.1c0 .2-.1.4-.5.7l-.3.2c-.3.2-.5.2-.6 0l-.9-2.1c-.1-.2-.2-.2-.2-.3-.1 0-.2 0-.3.1l-.2.1.5 2.8c0 .3-.1.5-.5.7l-.3.2c-.5.2-.7.2-.7-.1zm1.1-5.8c.1-.1.2-.2.3-.5.1-.2.1-.5 0-.9s-.1-.6-.3-.7c-.1-.1-.3-.1-.4 0l-.5.3.3 2.1.6-.3zm4 2.6c-.5-.3-.7-.8-.9-1.6l-.9-5.8c0-.3.1-.5.5-.7l.4-.2c.3-.2.5-.2.6.1l.9 5.7c.1.3.2.6.3.7.2.1.4.1.6 0s.4-.3.5-.6.1-.6.1-.9l-.9-5.7c0-.3.1-.5.5-.7l.3-.2c.3-.2.5-.2.6.1l.9 5.8c.1.8.1 1.6-.3 2.3-.3.7-.8 1.2-1.5 1.6-.7.3-1.3.4-1.7.1zm5-3.3c-.5-.5-.9-1.5-1.1-3.1-.2-1.5-.2-2.7.1-3.7s.8-1.7 1.7-2.2c.3-.2.5-.3.8-.3.2 0 .3.1.4.4s.1.6 0 .9c0 .3-.1.5-.3.5s-.4.1-.6.2c-.4.2-.6.6-.7 1.2s-.1 1.3.1 2.3.3 1.6.6 2c.2.4.6.4 1 .2.1-.1.2-.1.3-.2l.4-.4c.1-.1.2 0 .3.2s.2.4.2.8v.4c0 .1-.1.2-.2.3l-.4.4c-.2.1-.3.3-.5.4-1 .2-1.6.2-2.1-.3zm4.6-2l-1.1-6.8-1 .6c-.1.1-.2 0-.2 0s-.1-.2-.1-.4l-.1-.4v-.5c0-.1.1-.2.2-.3l3.4-2c.1-.1.2 0 .2 0 .1.1.1.2.1.4l.1.4v.5c0 .1-.1.2-.2.3l-1 .6 1.1 6.8c0 .3-.1.5-.5.7l-.4.2c-.3.2-.5.2-.5-.1zm3.2-1.8l-1.3-8c0-.3.1-.5.5-.7l.4-.2c.3-.2.5-.2.6.1l1.3 8c0 .3-.1.5-.4.7l-.4.2c-.5.2-.7.1-.7-.1zm1.5-5.3c-.5-3 .1-4.9 1.6-5.8.8-.4 1.4-.4 1.9.1s.9 1.5 1.1 3.1c.2 1.5.2 2.8-.1 3.7-.3 1-.8 1.7-1.6 2.1-1.4.8-2.4-.2-2.9-3.2zm3.3.9c.1-.2.2-.6.2-1 0-.5-.1-1-.2-1.8-.1-.7-.2-1.3-.4-1.7a1.4 1.4 0 0 0-.4-.7c-.2-.1-.3-.1-.6 0-.2.1-.4.3-.5.6-.1.2-.2.6-.2 1 0 .5.1 1 .2 1.8.1.7.2 1.3.4 1.7a1.4 1.4 0 0 0 .4.7c.2.1.3.1.6 0 .3-.2.4-.3.5-.6zm2.8-.1l-1.3-8c0-.3.1-.5.5-.7l.2-.1c.1-.1.2-.1.3-.1s.2.1.2.2l2.3 3.2c.1.2.3.4.5.8h0c-.1-.4-.2-.7-.2-1l-.6-4c0-.3.1-.5.4-.7l.2-.1c.3-.2.5-.2.6.1l1.3 8c0 .3-.1.5-.5.7l-.2.1c-.1.1-.2.1-.3.1s-.2-.1-.2-.2l-2.4-3.3c-.1-.1-.2-.3-.4-.7v.1c.1.4.2.6.2.8l.7 4.1c0 .3-.1.5-.5.7l-.2.1c-.3.2-.5.2-.6-.1z"/></g><use xlink:href="#AO" class="B"/><use xlink:href="#AO" class="O"/><use xlink:href="#AP" class="B"/><use xlink:href="#AP" opacity=".6"/><use xlink:href="#AP" x="25.03" y="-14.493" class="B"/><use xlink:href="#AP" x="25.03" y="-14.493" opacity=".6"/><use xlink:href="#AQ" class="B"/><use xlink:href="#AQ" opacity=".4"/><use xlink:href="#AR" class="B"/><use xlink:href="#AS" class="G"/><use xlink:href="#AT" class="H"/><path d="M229.8 313.2l-18.6-10.7c-.4-.2-.7-.7-.7-1.2v-.3c0-.4.3-.9.7-1.2l26.8-15.5c.4-.2 1-.2 1.3 0l18.6 10.7c.4.2.7.7.7 1.2v.3c0 .4-.3.9-.7 1.2l-26.8 15.5c-.4.2-1 .2-1.3 0z" class="B"/><use xlink:href="#AS" x="-4.9" y="-22.7" class="G"/><path d="M210.7 300.4c-.1.2-.2.4-.2.7v.3c0 .4.3.9.7 1.2l18.6 10.7c.2.1.4.2.7.2v-1.6l-19.8-11.5z" class="H"/><path d="M249.1 403.7l-11.2-6.4c-.4-.2-.7-.7-.7-1.2v-.3c0-.4.3-.9.7-1.2l26.8-15.5c.4-.2 1-.2 1.3 0l11.2 6.4c.4.2.7.7.7 1.2v.3c0 .4-.3.9-.7 1.2l-26.8 15.5c-.3.3-.9.3-1.3 0z" class="B"/><use xlink:href="#AT" x="14.5" y="67.9" class="H"/><use xlink:href="#AS" x="14.5" y="67.9" class="G"/><use xlink:href="#AR" x="9.7" y="45.3" class="B"/><use xlink:href="#AT" x="9.7" y="45.3" class="H"/><use xlink:href="#AS" x="9.7" y="45.3" class="G"/><use xlink:href="#AR" x="4.8" y="22.7" class="B"/><path d="M227.8 349.9c-.1.2-.2.4-.2.7v.3c0 .4.3.9.7 1.2l11.2 6.4c.2.1.4.2.7.2V357l-12.4-7.1z" class="H"/><use xlink:href="#AS" x="4.8" y="22.6" class="G"/><path d="M267.9 346.5l-.9-9.9-8.4.5s2.8 10.8 3.3 11.8c1.5.2 6-2.4 6-2.4z" class="R"/><path d="M270.5 349.9c.1.4 0 .7 0 1.1l-.2 3.8c0 .5-.1 1-.2 1.5-.1.6 0 1.2 0 1.8v1.9c0 .2-.1.6 0 .8.1.3-4 2.7-5.6 3.6-.1.1-.2.1-.3.1-1.5.6-2.7-.6-2.7-.6-1.2-3.1 1.1-5 1.1-5s.2 0 .1-1.6c0-1.2 0-2.3-.2-3.5l-.4-2.5c-.2-.9-.2-1.6-.5-2.8-.1-.3-.2-.6-.1-.9.1-.2.2-.3.4-.5 1.6-1.2 3.3-2 5.3-2 .2 0 .5 0 .6.2.1.1.2.3.3.5.1.4.2 1 .4 1.4.2.3.5.6.7.8.5.4 1 1 1.2 1.6.1.2.1.2.1.3z" class="D"/><path d="M271.3 350.3c.8.3.6 2.4.1 4.4s-.7 2.7-.4 4.4.4 2.4-.3 3-6.1 3.2-6.1 3.2 1-2.6 1.1-6.3.3-6.1 2-7.8c1.8-1.6 3.6-.9 3.6-.9z" class="C"/><path d="M257.7 362.2s2.1 1.7 4.6 1.9c2.4.2 2.5-.7 2.8-3.6.2-2.9.3-6.8 1.4-8.6s3-2.6 3.7-2.4c.2-.1.9.5 1.1.8 0 0-1.7-.2-3.2 1.3s-1.7 4.6-1.8 7.5c0 2.8-.1 6.1-2.4 6.5s-4.7-.6-6.2-1.8c-.7-.7 0-1.6 0-1.6z" class="E"/><g class="I"><path d="M262.5 359c-.2.3-.4.5-.5.8h0c-.7 1.3-.8 2.6-.4 4.2-2.9-.2-3.8-1.8-3.8-1.8s-.2-1.4 1.5-2.5c.2-.1.4-.3.6-.3 1.4-.7 2.6-.4 2.6-.4z"/><path d="M262.6 358s-.3.2-.3.5.1 1.1.8 1.5c.3.2.6.1.1-.5-.2-.2-.4-.4-.4-.7-.2-.4-.2-.8-.2-.8zm0-2.1s-.2.2-.2.5.5 1.3 1 1.6c.5.2.2-.3 0-.6-.1-.1-.4-.5-.6-.9l-.2-.6zm-.2-2.2s-.2.2-.1.5c.1.2.9.9 1.3.9.2 0 .4-.1 0-.4-.2-.1-.6-.3-.8-.5s-.4-.5-.4-.5z"/></g><path d="M267.6 340.4s-4.2-.6-7.8 2.1c0 0-.8-2.1-4.6-15.6-1.4-5-2.3-9.3-3.2-12.5-.9-3.6-1.3-5-1.5-7.5-.7-8.6-.9-33.6-1.2-36.9l17.8-5.4c.8 3.9 1.5 8 0 15.4-1.5 10.5-2.8 21.9-3.3 27.6 0 0 1.6 3.3 2.4 8.7.5 3.3 1.4 24.1 1.4 24.1zm-38.4 8.6c-.3-.1-.2 1.1-.1 1.6.1.4.7 1.6 3.1 2.3s4.6.3 6.1.6c1.4.3 4.1 2 5.5 2.4 1.9.5 4.1.1 5.1-.5.4-.2 1.2-.8 1.2-1.2 0-.5.1-1-.1-1l-20.8-4.2z" class="E"/><path d="M250.2 353.2c-.5.7-1.5 1.3-2.4 1.5-1.4.4-2.8.4-4.1 0-.8-.2-1.7-.7-2.5-1.1-.9-.5-1.8-.7-2.7-1-1.2-.4-3.5-.4-4.8-.5-1.2-.1-1.9-.4-2.9-1.1-.8-.6-.9-1.8-.9-2.8 0-.2 0-.5.1-.7s.3-.3.5-.4c.5-.3.9-.7 1.4-1 .7-.4 3.5-1.2 4.6-.8l.6.1c.5.1 2.3.3 2.8.3s1-.1 1.4-.4c.3-.3.6-.6.9-.8.4-.2.9-.1 1.3 0 .8.2 1.5.3 2.3 0 .9-.3 1.6-1.1 2.5-1.5.2-.1.6-.1.8.2.2.2.2.7.2 1-.1 1.1.2 2.2.3 3.4.2 1.7 1.1 3.4.6 5.6z" class="D"/><g class="I"><path d="M238.2 345.5c-.5-.1-1.1.3-1.4.8-.2.3-.3.5-.4.7-.1.4-.2.7-.1 1.1 0 .1.1.2.2.1.1 0 .2-.1.2-.2.1-.5.2-1 .5-1.4.1-.2.2-.4.4-.5l.6-.3h.4c0-.1-.1-.2-.1-.2-.2-.1-.2-.1-.3-.1z"/><path d="M239.7 345.7c-.3 0-.5 0-.8.1-.3.2-.4.4-.5.7a1.93 1.93 0 0 0-.3 1c0 .2-.1.9.3.8.1 0 .2-.1.2-.2s0-.2.1-.3c.1-.4.1-.8.3-1.1.2-.4.5-.9.9-1h.2c0-.1-.1-.1-.2-.2-.1.2-.1.2-.2.2z"/><path d="M241.1 345.3a.55.55 0 0 0-.5.3c-.1.1-.3.4-.3.6l-.3 1.2c0 .3 0 .6.1.9.1.1.2.2.3.2s.1-.2.1-.3c0-.2 0-.4.1-.6.1-.7.4-1.4.9-2l.1-.1c0-.1-.1-.1-.2-.1-.1-.1-.2-.1-.3-.1zm-4.5.1c-.6-.1-1.9.5-2.8 2.2s-1 4.4-1 4.4-1.5-.1-2.9-1.7c-.4-.4-.6-.9-.7-1.5 0-1.2.4-2 1-2.5 1-.9 2-1.4 4.6-1.4 2.3 0 2.4.6 2.4.6l-.6-.1z"/></g><path d="M248.3 337.1l.5 6.7c.1.8-.5 1.6-2.8 2.3-1.7.5-3.4 0-3.4-.5l-1.1-5 6.8-3.5z" class="R"/><path d="M267.5 265.7l-28.6 3-6.4 41.5c-.1 2.9 8.7 31.1 8.7 31.1s5.4.7 7.7-2l-.9-16.8c-.4-5.6-.9-7.7-2.4-13.2l9.3-28.1c12.8-4.9 12.6-15.5 12.6-15.5z" class="D"/><path d="M246.6 220.3l1.2 10.2 10.9-1.6-1.2-11zm15.3 3.3c3.1-.3 5.8.3 7.5 3.2 1.6 2.9 3.7 13.7 4.5 18.5.7 4.6 1.1 5.4-1.4 7-1.6 1.1-8.4 4.6-8.4 4.6l-2.2-33.3z" class="R"/><use xlink:href="#AU" class="B"/><use xlink:href="#AU" class="N"/><use xlink:href="#AV" class="B"/><use xlink:href="#AV" class="F J"/><path d="M202.8 220.2c1.3.1 2.4 1.2 2.4 2.1s-1.8 1.5-1.8 1.5l-.6-3.6z" class="U"/><path d="M198.3 214.5l2.2 13.1c0 .3.3.5.6.6.7.3 1.8.1 2.4-.4.3-.3.4-.5.4-.8l-2.2-13.1-3.4.6z" class="D"/><path d="M202.3 217.2l-3.1 2.6-.9-5.3 3.4-.6z" class="G"/><path d="M201.7 203.1l.5 2.7 2.1-1.7.9 5.5c.3 1.6-.5 3.8-1.8 4.9l-3.6 3c-.6.5-1.2.7-1.7.5-.1 0-2.2-.8-2.7-1s-.8-.7-1-1.5l-.9-5.5 8.2-6.9z" class="E"/><path d="M199.7 217.5l3.6-3c1.3-1.1 2.1-3.3 1.8-4.9l-.9-5.5-8.3 6.9.9 5.5c.3 1.5 1.6 2 2.9 1z" class="D"/><path fill="#f0f0f0" d="M195.9 210.9l8.3-6.9-1.4-7.9-8.3 6.9z"/><path d="M195.9 210.9l-1.4-7.9-2.5-1 1.4 8z" class="T"/><path d="M196.3 213.3l8.3-6.9.2 1.1-8.3 6.9z" class="I"/><path fill="#e7e7e7" d="M196.3 213.3l-2.5-.9.2 1.1 2.5.9z"/><path d="M192.4 204.4s1.1 1.8 2.6 1.6l-.5-3.1-2.5-.9.4 2.4z" class="B"/><path d="M192.4 204.4s1.1 1.8 2.6 1.6l-.5-3.1-2.5-.9.4 2.4z" class="H"/><path d="M195.1 206.1s1.8.5 3.1-.9c1-1 .8-3.9 2.9-4.3 1.5-.3 2.8 1.1 2.8 1.1l-1-5.8-8.3 6.9.5 3zm7.7-10l-2.5-1-8.3 6.9 2.5 1z" class="B"/><path d="M202.8 196.1l-2.5-1-8.3 6.9 2.5 1z" class="F J"/><path d="M241.6 226.9c-2.1.4-2.3-.2-8 3.3-5.2 3.2-14.4 8.4-17.8 10.4-3.7-3.3-7.5-8.5-9-11-.4-.7-.5-1.7-.5-2.5.2-2.1-.3-2.3-.3-4.3-.1-1.5.4-2.3 0-2.5s-1.5-.2-2.1 1c-.3.6-.4 1.1-.7 2.3 0 0-3.2 2.8-3.5 0l-.6-3.6c-1 0-2.8.3-3.2 2.5-.4 1.9-.7 6 .7 8.6.7 1.3 3.5 2.3 5.1 3.4 1.7 1.2 7 12.5 10.3 14.7 2 1.3 3.3 1.1 5.9.2 5.8-2 20-9.1 20-9.1s6-3.4 3.7-13.4z" class="R"/><use xlink:href="#AW" class="B"/><use xlink:href="#AW" class="N"/><path d="M239.6 207s-2.5 4.9-2.2 5.2c.3.4 2.1.9 2.1.9l.1-6.1z" class="U"/><path d="M240.7 210.1c-1.6 0-3-1.3-3-2.9s1.3-2.9 3-2.9c1.6 0 3 1.3 3 2.9s-1.4 2.9-3 2.9zm0-5.1c-1.3 0-2.3 1-2.3 2.2s1 2.2 2.3 2.2 2.3-1 2.3-2.2-1-2.2-2.3-2.2z" class="C"/><path d="M246.5 197.6c-5 1-6.5 3.2-7 10.9-.5 8.1.1 9.8 1.2 10.9.7.7 4 1.1 5.9 1 7-.3 9.7-2.6 12.5-6.7 3.2-4.8 4.1-11.3.6-14-4.9-3.6-11.2-2.5-13.2-2.1z" class="R"/><path d="M240.7 219.5c.7.7 4 1.1 5.9 1l-.1-1.1c0-.1-3.1.3-5.8.1z" class="U"/><g class="C"><path d="M238 206.6l9 1.1-.4.6-8.6-1z"/><path d="M239.6 200.1c.2.1.5.3.8.3-.2 1 .1 2 .8 2.7s1.7 1 2.7.8c-.2.6-.1 1.2.2 1.7s.8.9 1.4 1c-.2 0 0 1.4 0 1.5.1.6.4.8.9 1 0 0 .8-3 3.4-2.6s3 3.6 1.3 5.6c-1.6 2-3.2 1.2-3.2 1.2.2.1.2 1 .3 1.2.2.6.4 1.6.7 2.1.6 1 .7 1.8 2.6 2.7.9.4 5.3-.1 6.2-1.1 1.5-3.9 3.7-5.3 5.4-8.7.8-1.6 1.7-3.4 1.8-5.1.1-1.5.1-3.2-1.9-4.7.6-.7.7-1.8.2-2.6s-1.5-1.2-2.4-1c.3-1.4-.4-2.9-1.7-3.6-.8-.4-1.7-.6-2.6-.4-.2.1-2.2.8-2.1 1.2-.3-1.4-1.6-2.6-3-2.6-1.4-.1-2.8 1-3.2 2.4-.7-1.1-1.9-1.9-3.2-2.2-1.1-.3-2.4-.1-3.2.7s-.9 2.5-.3 3.6c-.9-.1-1.7.2-2.3.9-.5.6-.8 1.4-.7 2.2 0 .8.4 1.3 1.1 1.8z"/><path d="M246.3 210.8l.1-3.4c-1 0-1.8.7-1.8 1.6-.1 1 .7 1.8 1.7 1.8z"/></g><use xlink:href="#AX" class="B"/><use xlink:href="#AX" class="O"/><path d="M221.4 271.5c-1 .6-1.7 2.2-1.5 3.3l30.4 142.4v.5c0 .3-.3.6-.6.8-.9.5-2.3.5-3.1 0-.3-.2-.5-.4-.6-.6v-.2l-30.4-142c-.6-3 .9-6.5 3.6-8.1" class="B"/><path opacity=".4" d="M250.4 417.2L220 274.8c-.2-1.1.5-2.7 1.5-3.3l-2.2-3.8c-2.7 1.5-4.2 5.1-3.6 8.1L246.1 418c.1.2.3.5.6.6.9.5 2.3.5 3.1 0 .4-.2.6-.5.6-.8v-.6z"/><g class="D"><path d="M95.9 324.2c0-.3.2-.6.6-.8.8-.5 2.1-.5 2.9 0 .4.2.6.5.6.8h0v128.2c0 .6-.9 1.2-2.1 1.2-1.1 0-2.1-.5-2.1-1.2h0l.1-128.2z"/><path d="M121.9 287.1L102.1 268c-.4-.2-2.7-1.6-2.8-1.6-.7-.4-1.4-.1-1.8.6l-20.6 43.6c-.4.9-.2 2.3.5 3l19.8 19.1c.4.2 2.7 1.6 2.8 1.6.7.4 1.4.1 1.8-.6l20.6-43.6c.4-1 .2-2.3-.5-3z"/></g><path d="M122.4 290l-20.6 43.6c-.4.9-1.4 1.1-2.1.4l-19.5-18.8c-.7-.7-1-2-.5-3l20.6-43.6c.4-.9 1.4-1.1 2.1-.4l19.5 18.8c.7.8.9 2.1.5 3z" class="E"/><path d="M81.9 313.5v-.2l19.9-42.1 18.3 17.7v.2l-19.9 42.1-18.3-17.7z" class="B"/><path d="M99.9 334.2l-2.7-1.6c-.1-.1-.2-.1-.3-.2l-19.5-18.8c-.4-.4-.7-1-.7-1.6l2.8 1.6c.1.6.3 1.2.8 1.6L99.7 334c0 .1.1.1.2.2z" class="C"/><path d="M101.9 276.7c.5-.3.9-.1.9.5a2.04 2.04 0 0 1-.9 1.6c-.5.3-.9.1-.9-.5a2.04 2.04 0 0 1 .9-1.6zm-1.9 47.6c.5-.3.9-.1.9.5a2.04 2.04 0 0 1-.9 1.6c-.5.3-.9.1-.9-.5a2.04 2.04 0 0 1 .9-1.6z" class="E"/><g class="I"><path d="M106.8 291l1-1.9 2.7-.6c-.1-.9-.5-1.5-1.1-1.8-1-.4-2.4.4-3.5 2-.8 1.3-1.2 2.8-1.2 4 0 .3-.1.7-.2 1l-1.4 2.6-.8 1.5 1.8 1.5.7-1.3 1.3-2.4c.2-.4.5-.7.8-.8 1-.2 2-1.2 2.8-2.6.1-.1.1-.3.2-.4l-2.7.6-.4-1.4zm-6.9 11.5l-1.2 2.3-1.3 2.4c-.2.4-.5.7-.8.8-1 .2-2 1.2-2.8 2.6-.1.1-.1.3-.2.4l2.7-.6.4 1.6-1 1.9-2.7.6c.1.9.5 1.5 1.1 1.8 1 .4 2.4-.4 3.5-2 .8-1.3 1.2-2.8 1.2-4 0-.3.1-.7.2-1l1.6-3 1.1-2.1-1.8-1.7z"/><path d="M109.7 305.1l-7.4-5.8c-.3-.3-.9-.2-1.1.2l-.9 1.5c-.2.3-.1.7.1.9l7 6.8c.3.3.6.1.8-.2l1.3-2.5c.3-.4.4-.8.2-.9zm-14.2-8.8l4.5 3.8.6-1-4.6-3.7-.3-1.1-2.4-1.3-.5 1.1 1.6 2z"/></g><path d="M175.8 392.4h-32.2l1.4 22.9c0 2.1 1.4 4.3 4.1 5.9 5.6 3.3 14.7 3.4 20.3.2 2.8-1.6 4.3-3.7 4.3-5.9l2.1-23.1z" class="E"/><path d="M148.4 385.3c-6.3 3.6-6.4 9.4-.1 13.1 6.2 3.7 16.4 3.8 22.8.2 6.3-3.6 6.4-9.4.1-13.1-6.3-3.6-16.5-3.7-22.8-.2z" class="D"/><path d="M174.4 392.2c0 .4-.1.8-.2 1.3-.5 1.5-1.8 2.9-3.9 4.1-2.9 1.6-6.7 2.5-10.7 2.4s-7.8-1-10.6-2.6c-2-1.2-3.3-2.6-3.7-4.1-.2-.4-.2-.9-.2-1.3 0-2 1.5-3.9 4.1-5.3 2.8-1.6 6.7-2.5 10.7-2.4 4.1 0 7.8 1 10.7 2.6 2.4 1.4 3.8 3.3 3.8 5.3z" class="C"/><path d="M159.8 394.7c-4 0-7.9.8-10.7 2.4-.1 0-.1.1-.2.1 2.8 1.7 6.6 2.6 10.6 2.6 4.1 0 7.9-.8 10.7-2.4.1 0 .1-.1.2-.1-2.8-1.6-6.5-2.5-10.6-2.6z" class="B"/><path d="M160.8 399.9c-1.1-.2-2.1-.6-2.9-1.1-1.1-.6-1.7-1.4-2-2.2-.1-.2-.1-.5-.1-.7 0-.3.1-.6.2-.9-2.6.4-5 1.1-6.9 2.2-.1 0-.1.1-.2.1 2.8 1.7 6.6 2.6 10.6 2.6h1.3z" class="G"/><path d="M165.8 401c.6-.4 1.1-.1 1.1.7 0 .7-.5 1.6-1.2 2-.6.4-1.1.1-1.1-.7.1-.8.6-1.6 1.2-2z" class="C"/><path d="M144 398.8c-1.4 3.6-2.5 8.4.6 10.7.2.1.3.2.5.3v1.5c-.4-.2-.8-.5-1.2-.8-4.6-3.4-1.8-10.9 0-14.5l.1 2.8zm22.4 3.8c-.2.4-4.6 8.8-11.9 10.5a10.68 10.68 0 0 1-2.5.3c-2.3 0-4.5-.7-6.8-2.1v-1.5c3 2.1 6 2.8 9 2.1 6.7-1.6 11-9.8 11.1-9.9.2-.3.5-.4.8-.3.3.2.4.6.3.9z" class="M"/><defs ><path id="B" d="M181 42.8h0c-.3-.1-.6-.1-.9.1l-1.8 1.4-.3 1.2c-.2.7.1 1.6.7 2.1.3.3.6.6.9 1 .5.6 1.2.7 1.8.3l4.3-3.2c.3-.2.6-.3.9-.2l-5.6-2.7zm-5.8 16.8c-.9-3.6-3.3-5.2-6.3-4.8.3.6.6 1.3.8 2.1 1.4 5.7-1.7 14-6.9 18.7-1.9 1.7-3.8 2.7-5.5 2.9 2 3.7 6.6 3.8 11.1-.2 5.1-4.6 8.2-13 6.8-18.7zm-1.5-24.4h0c-.1 0-.2-.1-.4-.1l-3.4-.5c-.7-.1-1.6.3-1.8 1l-2.8 6.2c-.1.3-.4.6-.7.8h0c-.2.2-.3.3-.5.4l1.2 3.2c.3.7 1 .9 1.6.6.7-.3 1.4-.6 2-.8.4-.1.8-.4 1.2-.7.3-.3.5-.6.7-.9l2.8-6.2c.3-.7 1.1-1.1 1.8-1l3.4.5c.1 0 .2.1.3.1l-5.4-2.6zm-5.6 58.9c-.1-.1-.3-.3-.4-.5l-1.4-3.7c-.2-.7-1-.9-1.6-.6-.7.3-1.4.6-2 .8l-.6.3.2.5c.1.3.3.5.5.6h0l5.3 2.6zM158 39.3c-.1-.1-.2-.1-.4-.1s-.4.1-.6.3l-4.8 4.3-.2.2s-.1.1-.1.2c-.2.2-.3.5-.4.8v.2c-.1.3-.1.6-.1.8l.6 4.8c.1.7-.2 1.8-.6 2.4-.8 1-1.5 2.1-2.1 3.2-.2.4-.6.7-1.1.9-.1.1-.3.1-.4.2h-.5l-3.2.1h-.4c-.1 0-.2 0-.2.1-.1 0-.2.1-.3.1a1.38 1.38 0 0 0-.4.3c-.2.2-.4.4-.5.7l-2.6 7c-.2.6 0 1.3.6 1.6l3.7 1.8c.1.3.2.6.1.9-.2 1.1-.3 2.2-.3 3.3 0 .7-.4 1.8-.9 2.3h0l-4.1 4.3c-.1.1-.1.2-.2.3s-.1.2-.2.3c-.2.5-.3 1.2-.2 1.7l1.2 4.8c.1.3.2.5.4.6l5.5 2.7c-.2-.1-.3-.3-.4-.6l-1.2-4.8c-.1-.3-.1-.6 0-.9.1-.5.3-1 .6-1.3l4.1-4.3c.5-.5.9-1.6.9-2.3l.3-3.3c.1-.7-.3-1.5-1-1.7l-2.7-.9c-.7-.2-1-1-.8-1.7l2.6-7c.1-.3.3-.5.5-.7.4-.3.8-.6 1.3-.6l3.3-.1c.3 0 .6-.1.9-.2.4-.2.8-.6 1.1-.9l2.1-3.2c.4-.6.7-1.6.6-2.4l-.6-4.8c0-.3 0-.5.1-.8.1-.5.4-1.1.8-1.4l4.8-4.3c.3-.3.7-.4 1-.2l-5.6-2.7zm-4.2 51.3c.2-.7-.1-1.6-.7-2.1-.3-.3-.6-.6-.9-1-.5-.6-1.2-.7-1.8-.3L148 89l-1.5 5.1c-.2.6.1 1.1.5 1.3h0l5.5 2.7c-.5-.3-.7-.8-.5-1.3l1.8-6.2z"/><path id="C" d="M148.3 78.6l-4.1 4.3c-.3.3-.5.8-.6 1.3l-5.5-2.7c0-.3.1-.5.2-.7 0-.1.1-.2.2-.3s.1-.2.2-.3l4.1-4.3 5.5 2.7z"/><path id="D" d="M153.7 60c-.3.2-.6.2-.9.2l-3.3.1c-.5 0-.9.2-1.3.6l-5.5-2.7c.1-.1.3-.2.4-.3.1 0 .2-.1.3-.1s.2-.1.2-.1h.4l3.2-.1h.5a.76.76 0 0 0 .4-.2h0l5.6 2.6z"/><path id="E" d="M186.5 45.5c-.3-.1-.6-.1-.9.2l-4.3 3.2c-.6.4-1.4.3-1.8-.3-.3-.4-.6-.7-.9-1-.5-.5-.9-1.4-.7-2.1l.3-1.2 1.8-1.4c.3-.2.7-.3.9-.1h0l5.6 2.7z"/><path id="F" d="M179.2 37.9c-.1 0-.2-.1-.3-.1l-3.4-.5c-.7-.1-1.5.3-1.8 1l-2.8 6.2c-.1.3-.4.6-.7.9l-5.5-2.7c.3-.3.5-.5.7-.8l2.8-6.2c.3-.7 1.1-1.1 1.8-1l3.4.5c.1 0 .3.1.4.1h0l5.4 2.6z"/><path id="G" d="M163.5 42c-.3-.1-.7-.1-1 .2l-4.8 4.3c-.4.3-.6.8-.8 1.4l-5.5-2.7V45c.1-.3.2-.6.4-.8 0-.1.1-.1.1-.2l.2-.2 4.8-4.3c.2-.2.4-.3.6-.3.1 0 .3 0 .4.1l5.6 2.7z"/><path id="H" d="M188.1 51l-1.2-4.8c-.2-.7-.8-.9-1.4-.5l-4.3 3.2c-.6.4-1.4.3-1.8-.3-.3-.4-.6-.7-.9-1-.5-.5-.9-1.4-.7-2.1l1.9-6.3c.2-.7-.2-1.4-.9-1.5l-3.4-.5c-.7-.1-1.5.3-1.8 1l-2.8 6.2c-.3.7-1.1 1.3-1.8 1.6-.7.2-1.3.5-2 .8s-1.4.1-1.6-.6l-1.4-3.7c-.3-.7-.9-.8-1.4-.4l-4.8 4.3c-.5.5-.9 1.5-.8 2.2l.6 4.8c.1.7-.2 1.8-.6 2.4-.8 1-1.5 2.1-2.1 3.2-.4.6-1.2 1.2-2 1.2l-3.2.1c-.7 0-1.5.6-1.8 1.3l-2.6 7c-.3.7.1 1.4.8 1.7l2.7.9c.7.2 1.1 1 1 1.7-.2 1.1-.3 2.2-.3 3.3 0 .7-.4 1.8-.9 2.3l-4.2 4.4c-.5.5-.8 1.5-.6 2.2l1.2 4.8c.2.7.8.9 1.4.5l4.3-3.2c.6-.4 1.4-.3 1.8.3.3.4.6.7.9 1 .5.5.9 1.4.7 2.1l-1.9 6.3c-.2.7.2 1.4.9 1.5l3.4.5c.7.1 1.5-.3 1.8-1l2.8-6.2c.3-.7 1.1-1.3 1.8-1.6.7-.2 1.3-.5 2-.8s1.4-.1 1.6.6l1.4 3.7c.3.7.9.8 1.4.4l4.8-4.3c.5-.5.9-1.5.8-2.2l-.6-4.8c-.1-.7.2-1.8.6-2.4.8-1 1.5-2.1 2.1-3.2.4-.6 1.2-1.2 2-1.2l3.2-.1c.7 0 1.5-.6 1.8-1.3l2.6-7c.3-.7-.1-1.4-.8-1.7l-2.7-.9c-.7-.2-1.1-1-1-1.7.2-1.1.3-2.2.3-3.3 0-.7.4-1.8.9-2.3l4.2-4.4c.5-.5.8-1.5.6-2.2zm-19.8 27.3c-5.2 4.6-10.5 3.8-11.8-1.8-1.4-5.7 1.7-14 6.9-18.7 5.2-4.6 10.5-3.8 11.8 1.8 1.4 5.7-1.7 14.1-6.9 18.7z"/><path id="I" d="M114 53.9h0c-.4-.2-.8-.1-1.3.2l-2.5 1.9-.5 1.6c-.3 1 .2 2.2.9 2.9.5.4.9.9 1.3 1.4.6.8 1.7 1 2.5.4l5.9-4.4c.4-.3.9-.4 1.2-.2l-7.5-3.8zm-8 23.2c-1.2-4.9-4.5-7.2-8.6-6.6.4.8.8 1.8 1 2.9 1.9 7.8-2.4 19.3-9.5 25.7-2.6 2.4-5.3 3.7-7.6 4 2.8 5.1 9.1 5.2 15.2-.3 7.1-6.4 11.4-17.9 9.5-25.7zm-2.1-33.8h0c-.2-.1-.3-.1-.5-.1l-4.7-.7c-1-.2-2.1.5-2.5 1.4l-3.8 8.6c-.2.4-.5.8-.9 1.2h0c-.2.2-.4.4-.7.5l1.7 4.4c.4.9 1.4 1.3 2.3.9.9-.5 1.9-.8 2.8-1.1.5-.2 1.1-.5 1.6-1 .4-.4.7-.8.9-1.2l3.8-8.6c.4-.9 1.6-1.5 2.5-1.4l4.7.7c.2 0 .3.1.5.1l-7.7-3.7zm-7.7 81.2c-.2-.1-.4-.4-.5-.7l-1.9-5.1c-.3-.9-1.3-1.3-2.3-.9-.9.5-1.9.8-2.8 1.1-.3.1-.6.2-.9.4l.3.7c.1.4.4.6.6.8h0l7.5 3.7zM82.3 49c-.2-.1-.3-.1-.5-.1-.3 0-.6.1-.8.4l-6.6 5.9-.5.5c-.2.3-.4.7-.5 1.1 0 .1 0 .2-.1.3h0c-.1.4-.2.8-.1 1.1l.8 6.6c.1 1-.3 2.5-.9 3.3-1.1 1.4-2 2.9-2.9 4.5-.3.5-.8 1-1.5 1.3-.2.1-.4.2-.6.2-.1 0-.2.1-.3.1s-.3.1-.4.1l-4.5.1h-.1c-.1 0-.2 0-.4.1-.1 0-.2.1-.3.1s-.2.1-.4.2-.4.3-.6.4c-.3.3-.5.6-.7 1l-3.6 9.7c-.3.9.1 1.8.9 2.2l5.1 2.5c.2.4.3.8.2 1.3-.2 1.5-.4 3-.5 4.5 0 1-.6 2.4-1.3 3.1l-.1.1-5.7 6-.3.3v.1a.76.76 0 0 0-.2.4c-.3.7-.5 1.6-.3 2.3l1.6 6.6c.1.4.3.7.6.9l7.5 3.7a1.22 1.22 0 0 1-.6-.9l-1.6-6.6c-.1-.4-.1-.8 0-1.3.1-.7.4-1.4.8-1.8l5.8-6.1c.7-.7 1.2-2.1 1.3-3.1.1-1.5.2-3 .5-4.5.2-1-.5-2.1-1.4-2.4l-3.7-1.3c-.9-.3-1.4-1.4-1.1-2.3l3.6-9.7c.1-.4.4-.7.7-1 .5-.5 1.2-.8 1.8-.8l4.5-.1a3.08 3.08 0 0 0 1.3-.3c.6-.3 1.1-.8 1.5-1.3.9-1.5 1.9-3 2.9-4.5.6-.8 1-2.3.9-3.3l-.8-6.6c0-.4 0-.8.1-1.2.2-.7.6-1.5 1-1.9l6.6-5.9c.4-.4 1-.5 1.4-.3L82.3 49zm-5.8 70.7c.3-1-.2-2.2-.9-2.9-.5-.4-.9-.9-1.3-1.4-.6-.8-1.7-1-2.5-.4l-3.4 2.5-2.1 7.1c-.2.8.1 1.5.7 1.8h0l7.6 3.7c-.7-.3-1-1.1-.7-1.9l2.6-8.5z"/><path id="J" d="M69 103.1l-5.7 6c-.4.4-.7 1.1-.8 1.8l-7.6-3.7.3-1c.1-.1.1-.3.2-.4v-.1l.3-.3 5.7-6 7.6 3.7z"/><path id="K" d="M76.4 77.5a3.08 3.08 0 0 1-1.3.3l-4.5.1c-.6 0-1.3.3-1.8.8L61.3 75c.2-.2.4-.3.6-.4.1-.1.2-.1.4-.2.1 0 .2-.1.3-.1s.2-.1.4-.1h.1l4.5-.1c.1 0 .3 0 .4-.1.1 0 .2 0 .3-.1.2-.1.4-.1.6-.2h0l7.5 3.8z"/><path id="L" d="M121.5 57.6c-.4-.2-.8-.1-1.2.2l-5.9 4.4c-.8.6-1.9.4-2.5-.4-.4-.5-.8-1-1.3-1.4-.7-.7-1.2-1.9-.9-2.9l.5-1.6 2.5-1.9c.5-.3.9-.4 1.3-.2h0l7.5 3.8z"/><path id="M" d="M111.5 47.1c-.1-.1-.3-.1-.5-.1l-4.7-.7c-1-.2-2.1.5-2.5 1.4l-3.8 8.6c-.2.4-.5.8-.9 1.2l-7.6-3.7c.4-.4.7-.8.9-1.2l3.8-8.6c.4-.9 1.5-1.5 2.5-1.4l4.7.7c.2 0 .3.1.5.2h0l7.6 3.6z"/><path id="N" d="M89.9 52.7c-.4-.2-.9-.1-1.4.3l-6.6 5.9c-.5.4-.9 1.2-1 1.9l-7.6-3.7c0-.1 0-.2.1-.3.1-.4.3-.8.5-1.1.1-.1.1-.2.2-.2l.3-.3 6.6-5.9c.3-.2.5-.4.8-.4.2 0 .4 0 .5.1l7.6 3.7z"/><path id="O" d="M123.8 65.1l-1.6-6.6c-.2-1-1.1-1.3-1.9-.7l-5.9 4.4c-.8.6-1.9.4-2.5-.4-.4-.5-.8-1-1.3-1.4-.7-.7-1.2-1.9-.9-2.9l2.6-8.7c.3-1-.3-1.9-1.3-2l-4.7-.7c-1-.2-2.1.5-2.5 1.4l-3.8 8.6c-.4.9-1.5 1.8-2.5 2.2-.9.3-1.8.7-2.8 1.1-.9.4-1.9.1-2.3-.9l-1.9-5.1c-.4-.9-1.2-1.2-2-.5l-6.6 5.9c-.7.7-1.3 2-1.1 3l.8 6.6c.1 1-.3 2.4-.9 3.3l-2.9 4.5c-.5.9-1.7 1.6-2.7 1.6l-4.5.1c-1 0-2.1.8-2.5 1.7l-3.6 9.7c-.3.9.1 2 1.1 2.3l3.7 1.3c1 .3 1.6 1.4 1.4 2.4l-.5 4.5c0 1-.6 2.4-1.3 3.1l-5.8 6.1c-.7.7-1.1 2.1-.8 3.1l1.6 6.6c.2 1 1.1 1.3 1.9.7l5.9-4.4c.8-.6 1.9-.4 2.5.4.4.5.8 1 1.3 1.4.7.7 1.2 1.9.9 2.9l-2.6 8.7c-.3 1 .3 1.9 1.3 2l4.7.7c1 .2 2.1-.5 2.5-1.4l3.8-8.6c.4-.9 1.5-1.8 2.5-2.2.9-.3 1.8-.7 2.8-1.1.9-.4 1.9-.1 2.3.9l1.9 5.1c.4.9 1.2 1.2 2 .5l6.6-5.9c.7-.7 1.3-2 1.1-3l-.8-6.6c-.1-1 .3-2.4.9-3.3l2.9-4.5c.5-.9 1.7-1.6 2.7-1.6l4.5-.1c1 0 2.1-.8 2.5-1.7l3.6-9.7c.3-.9-.1-2-1.1-2.3l-3.7-1.3c-1-.3-1.6-1.4-1.4-2.4l.5-4.5c0-1 .6-2.4 1.3-3.1l5.8-6.1c.6-.7 1-2.1.8-3.1zm-27.3 37.7c-7.1 6.4-14.4 5.3-16.3-2.5s2.4-19.3 9.5-25.7 14.4-5.3 16.3 2.5-2.4 19.3-9.5 25.7z"/><path id="P" d="M208.3 497.3l26.5-15.3c1-.6 1-1.5 0-2.1l-26.5-15.3c-1-.6-2.6-.6-3.6 0L178.3 480c-1 .6-1 1.5 0 2.1l26.5 15.3c1 .5 2.5.5 3.5-.1z"/><path id="Q" d="M198.6 454h0l1.7-5c-.3.9 0 1.7.7 2.5.3.3.6.6 1 .8 2.5 1.4 6.6 1.4 9.1 0 .4-.2.8-.5 1-.8.8-.8 1-1.7.7-2.5l1.7 5c.3.8.1 1.7-.4 2.5-.4.6-1 1.2-1.9 1.7-.6.3-1.3.6-2 .8-2.3.7-5.1.7-7.5 0-.7-.2-1.4-.5-2-.8-.9-.5-1.5-1.1-1.9-1.7-.4-.8-.5-1.7-.2-2.5z"/><path id="R" d="M206.6 441.7c1.2 0 2.4.3 3.3.8.7.4 1.1.9 1.3 1.4h0l11.7 35.2c1.1 3.1-.4 6.4-4.5 8.7-3.3 1.9-7.5 2.8-11.8 2.8h.1c5.3-.8 8.8-5.9 8.1-11.2l-4.9-35-3.3-2.7z"/><path id="S" d="M209.9 446.4c1.8-1.1 1.8-2.8 0-3.9s-4.8-1.1-6.7 0c-1.8 1.1-1.8 2.8 0 3.9 1.9 1 4.8 1 6.7 0z"/><path id="T" d="M422.7 478.2l26.5-15.3c1-.6 1-1.5 0-2.1l-26.5-15.3c-1-.6-2.6-.6-3.6 0l-26.5 15.3c-1 .6-1 1.5 0 2.1l26.5 15.3c1 .6 2.6.6 3.6 0z"/><path id="U" d="M424.2 427.2c1.8-1.1 1.8-2.8 0-3.9s-4.8-1.1-6.7 0c-1.8 1.1-1.8 2.8 0 3.9 1.9 1.1 4.9 1.1 6.7 0z"/><path id="V" d="M56.3 405s3-14.8-.5-28.2-11-23.5-19.9-27.2-19 2.3-11.1 11.2 23.3 20.5 24.2 44.6l7.3-.4z"/><path id="W" d="M61.1 425.3c0 4.3 3 6.1 6.8 3.9l283.6-163.7c3.7-2.2 6.8-7.4 6.8-11.7V29.9L61.1 201.4v223.9z"/><path id="X" d="M320.2 37.2c-1.8 1-3.2 3.5-3.2 5.5s1.4 2.8 3.2 1.8 3.2-3.5 3.2-5.5-1.4-2.8-3.2-1.8z"/><path id="Y" d="M177.2 249.9c-.2 0-.5-.1-.6-.3-.2-.3-.1-.8.3-1l107.5-62c.3-.2.8-.1 1 .3.2.3.1.8-.3 1l-107.5 62h-.4z"/><path id="Z" d="M177.2 256.5c-.2 0-.5-.1-.6-.3-.2-.3-.1-.8.3-1l107.5-62c.3-.2.8-.1 1 .3.2.3.1.8-.3 1l-107.5 62c-.1-.1-.3 0-.4 0z"/><path id="a" d="M89.9 348c-.2 0-.3-.1-.4-.2-.1-.2 0-.5.2-.6l2.7-1.6c.2-.1.5 0 .6.2s0 .5-.2.6l-2.7 1.6h-.2z"/><path id="b" d="M100.7 341.8c-.2 0-.3-.1-.4-.2-.1-.2 0-.5.2-.6l2.7-1.6c.2-.1.5 0 .6.2s0 .5-.2.6l-2.7 1.6c0-.1-.1 0-.2 0z"/><path id="c" d="M106.2 338.6c-.2 0-.3-.1-.4-.2-.1-.2 0-.5.2-.6l2.7-1.6c.2-.1.5-.1.6.2.1.2 0 .5-.2.6l-2.7 1.6h-.2z"/><path id="d" d="M162.2 306.3c-.2 0-.3-.1-.4-.2-.1-.2 0-.5.2-.6l2.7-1.6c.2-.1.5 0 .6.2s0 .5-.2.6l-2.7 1.6c-.1-.1-.1 0-.2 0z"/><path id="e" d="M83.9 399.5c-.2 0-.4-.2-.4-.4v-1.5c0-.2.2-.4.4-.4s.4.2.4.4v1.5c.1.2-.1.4-.4.4z"/><path id="f" d="M83.9 395.2c-.2 0-.4-.2-.4-.4v-2.9c0-.2.2-.4.4-.4s.4.2.4.4v2.9c.1.2-.1.4-.4.4zm0-5.7c-.2 0-.4-.2-.4-.4v-2.9c0-.2.2-.4.4-.4s.4.2.4.4v2.9c.1.2-.1.4-.4.4zm0-5.7c-.2 0-.4-.2-.4-.4v-2.9c0-.2.2-.4.4-.4s.4.2.4.4v2.9c.1.2-.1.4-.4.4zm0-5.7c-.2 0-.4-.2-.4-.4v-2.9c0-.2.2-.4.4-.4s.4.2.4.4v2.9c.1.2-.1.4-.4.4zm0-5.7c-.2 0-.4-.2-.4-.4v-2.9c0-.2.2-.4.4-.4s.4.2.4.4v2.9c.1.2-.1.4-.4.4zm0-5.7c-.2 0-.4-.2-.4-.4v-2.9c0-.2.2-.4.4-.4s.4.2.4.4v2.9c.1.2-.1.4-.4.4zm0-5.7c-.2 0-.4-.2-.4-.4v-2.9c0-.2.2-.4.4-.4s.4.2.4.4v2.9c.1.2-.1.4-.4.4z"/><path id="g" d="M95.3 395.2c-.2 0-.3-.1-.4-.2-.1-.2 0-.5.2-.6l2.7-1.6c.2-.1.5-.1.6.2.1.2 0 .5-.2.6l-2.7 1.6c0 0-.1 0-.2 0z"/><path id="h" d="M111.6 385.8c-.2 0-.3-.1-.4-.2-.1-.2-.1-.5.2-.6l2.7-1.6c.2-.1.5-.1.6.2.1.2 0 .5-.2.6l-2.7 1.6c0 0-.1 0-.2 0z"/><path id="i" d="M128.5 376.1c-.2 0-.3-.1-.4-.2-.1-.2-.1-.5.2-.6l2.7-1.6c.2-.1.5-.1.6.2.1.2 0 .5-.2.6l-2.7 1.6h-.2z"/><path id="j" d="M219.1 275.7c-.1 0-.2 0-.2-.1-.1-.1-.2-.2-.2-.4v-4.6c0-.2.1-.3.2-.4l4-2.3c.1-.1.3-.1.4 0s.2.2.2.4v4.6c0 .2-.1.3-.2.4l-4 2.3c0 0-.1.1-.2.1zm.5-4.8v3.5l3.1-1.8v-3.5l-3.1 1.8z"/><path id="k" d="M160.1 319.5c-.1 0-.2-.1-.3-.2-.1-.2 0-.4.1-.5l56.4-32.6c.2-.1.4 0 .5.1.1.2 0 .4-.1.5l-56.4 32.6c0 .1-.1.1-.2.1z"/><path id="l" d="M248.9 293.5l33.6-19.3c.2-.1.3 0 .3.2v1.1c0 .2-.2.5-.3.6l-33.6 19.3c-.2.1-.3 0-.3-.2v-1.1c0-.2.1-.5.3-.6z"/><path id="m" d="M300.4 263.8l33.6-19.3c.2-.1.3 0 .3.2v1.1c0 .2-.2.5-.3.6l-33.6 19.3c-.2.1-.3 0-.3-.2v-1.1c-.1-.2.1-.5.3-.6z"/><path id="n" d="M298.3 115.4l103.8-60c1.3-.8 2.4-.1 2.4 1.4v93.8c0 1.5-1.1 3.4-2.4 4.2l-103.8 60c-1.3.8-2.4.1-2.4-1.4v-93.8c0-1.5 1.1-3.4 2.4-4.2z"/><path id="o" d="M363.5 131.7v-7.4c0-.4-.3-.7-.7-.5l-5.7 2.6c-.4.2-.8 0-.9-.4-.3-1-.8-2-1.3-2.8-.2-.4-.3-1-.1-1.4l3.8-7.6c.2-.4 0-.9-.3-1.1l-4.1-2.4c-.4-.2-.9-.1-1.1.3l-4.7 7.1c-.2.4-.8.6-1.2.6-1 0-2 .1-3.1.3-.4.1-.8-.2-.9-.6l-.6-6.2c0-.4-.4-.6-.8-.4l-6.4 3.7c-.4.2-.7.8-.8 1.2l-.6 7.1c0 .4-.3 1-.7 1.3-1.2 1.1-2.4 2.4-3.5 3.8a1.48 1.48 0 0 1-1.3.4l-4.1-1.4c-.4-.1-.9 0-1.2.4l-4.7 8.1c-.2.4-.1.9.2 1.2l3.3 2.8c.3.3.5.9.3 1.3-.6 1.6-1.1 3.3-1.5 5-.1.4-.5 1-.8 1.2l-5.8 4.1c-.4.3-.7.8-.7 1.3v7.4c0 .4.3.7.7.5l5.7-2.6c.4-.2.8 0 .9.4.3 1 .8 2 1.3 2.8.2.4.3 1 .1 1.4l-3.8 7.6c-.2.4 0 .9.3 1.1l4.1 2.4c.4.2.9.1 1.1-.3l4.7-7.1c.2-.4.8-.6 1.2-.6 1 0 2-.1 3.1-.3.4-.1.8.2.9.6l.6 6.2c0 .4.4.6.8.4l6.4-3.7c.4-.2.7-.8.8-1.2l.6-7.1c0-.4.3-1 .7-1.3 1.2-1.1 2.4-2.4 3.5-3.8a1.48 1.48 0 0 1 1.3-.4l4.1 1.4c.4.1.9 0 1.2-.4l4.7-8.1c.2-.4.1-.9-.2-1.2l-3.3-2.8c-.3-.3-.5-.9-.3-1.3.6-1.6 1.1-3.3 1.5-5 .1-.4.5-1 .8-1.2l5.8-4.1c.4-.3.7-.8.7-1.3zm-25 23.2c-6 3.4-10.8.7-10.8-6.2s4.8-15.3 10.8-18.7 10.8-.7 10.8 6.2-4.8 15.3-10.8 18.7z"/><path id="p" d="M316.7 123.6l-2.2-1.3c-.3 0-.5.2-.7.4l-1.4 2.5-.6 1-2 3.5-.7 1.3c-.1.2-.1.4-.1.6h0l9.4 5.4c0-.2 0-.5.1-.6l1.3-2.3 3.4-5.8c.1-.3.4-.4.7-.4l-7.2-4.3z"/><path id="q" d="M342.2 111.7c-.1-.1-.3 0-.5.1l-5.2 3-1.2.7c-.3.2-.5.5-.7.8l-9.4-5.4c.1-.2.2-.4.4-.6.1-.1.2-.1.2-.2 0 0 .1 0 .1-.1l1.4-.8.5-.3 4.4-2.5c.1-.1.2-.1.3-.1h.2l3.1 1.8h.1l4.2 2.5 2.1 1.1z"/><path id="r" d="M396.1 136.5c0 .5 0 .9-.1 1.4a.47.47 0 0 0 .5.5l3 .2c.1 0 .2 0 .2.1-.2-.2-1.9-1.2-3.6-2.2z"/><path id="s" d="M376.4 158.4c-.5-.2-1.1-.5-1.5-.9-.2-.2-.5-.1-.8.1l-3.6 3.3a.76.76 0 0 1-.4.2l3.5 2 2.2 1.3c-.1-.1-.2-.2-.1-.3l1.1-5c0-.4-.2-.7-.4-.7z"/><path id="t" d="M369.6 160.8h0c.2.1.2.1.3.2h.1l-.1-.1-1.6-3.5v-.4a.76.76 0 0 1 .2-.4l3.3-4c.1-.2.3-.4.3-.6v-.3c-.1-.9-.1-1.9 0-2.9 0-.2-.2-.5-.5-.5l-3-.2c-.3 0-.5-.2-.4-.5l1.6-5.6c.1-.3.4-.5.7-.6l3.3-.8c.3-.1.7-.4.8-.6.5-1 1.1-2.1 1.8-3.1 0-.1.1-.2.1-.2s0-.1.1-.2v-.5l-1.1-3.6v-.4c0-.1.1-.2.1-.2 0-.1.1-.1.2-.2l3.8-4c.2-.2.4-.2.5-.2 0 0 .1 0 .1.1l1.8 2.7c.1.2.5.2.7 0 .7-.5 1.4-.9 2.2-1.2.3-.2.7-.5.8-.7l1.9-5.1s0-.1.1-.1c.1-.1.3-.3.5-.3h.2l3.5-.4h.3c.1.1.2.2.1.3l-1.1 5c-.1.3.1.5.4.6.5.2 1.1.5 1.5.9.2.2.5.1.8-.1l3.6-3.3c.2-.2.4-.2.5-.2-.4-.2-7-4.1-7-4.1h-.1c-.4-.2-.8-.5-1.3-.7h0l-1.4-.8-.6-.3-1.3-.7c-.1 0-.1-.1-.2-.1-.6-.3-.9-.5-1-.6s-.2-.1-.3-.1l-3.5.3h-.2c-.1 0-.1 0-.2.1-.1 0-.1.1-.2.1l-.1.1c-.1.1-.1.2-.2.3l-1.9 5.1s0 .1-.1.1c0 .1-.1.1-.1.2l-.2.2c-.1 0-.1.1-.2.1s-.1.1-.2.1l-1.1.6-3.7-2.1h-.4c-.1 0-.1.1-.2.1h0l-2.7 2.9-1.1 1.2-.2.2c0 .1-.1.2-.1.3v.4l1.1 3.6v.5c0 .1-.1.2-.2.3l-1.8 3.1c-.1.3-.5.5-.8.6l-3.3.8c-.3.1-.7.4-.7.6l-1.7 5.6c0 .2 0 .3.1.4l2.5 1.5 1.2.7c0 .5 0 1 .1 1.5h0v.2c0 .1 0 .2-.1.3s-.1.3-.2.4l-3.4 4.1a.76.76 0 0 0-.2.4v.4l1.6 3.5c0 .1.1.1.1.1h0c.1 0 .5.3 1 .6.1.1.3.2.5.3l4.3 2.5c.2.1.3.2.5.3.1.1.2.1.3.2"/><path id="u" d="M368.2 147.6c0 .2 0 .3.1.4l-3.3-1.9-3.6-2.1h-.1c-.1-.1-.2-.2-.1-.4l1.7-5.6c0-.1.1-.1.1-.2l7.1 4.1c-.1.1-.1.2-.1.2l-1.8 5.5z"/><path id="v" d="M380.3 127.4h0c-.2-.1-.4 0-.6.2l-3.8 4c-.1.1-.2.3-.3.4l-7.1-4c0-.1.1-.2.1-.3s.1-.2.2-.2l3.8-4 .2-.2c.1-.1.2-.1.3 0h.1l3.7 2.1 3.4 2z"/><path id="w" d="M392.3 122.3c-.1 0-.2-.1-.3-.1l-3.5.4c-.2 0-.4.1-.6.3l-7.1-4.1.1-.1s.1-.1.2-.1c0 0 .1 0 .2-.1h.2l3.5-.3c.1 0 .3 0 .3.1.1-.1 6.9 3.9 7 4z"/><path id="x" d="M399.7 138.6c-.1 0-.1-.1-.2-.1l-3-.2a.47.47 0 0 1-.5-.5c0-.5.1-.9.1-1.4s0-1-.1-1.5a1.9 1.9 0 0 1 .3-.9l3.3-4.1c.2-.2.3-.6.2-.8l-1.6-3.5c0-.1-.1-.1-.1-.1-.1-.1-.3 0-.5.2L394 129c-.3.2-.6.3-.8.1-.5-.4-1-.7-1.5-.9-.2-.1-.4-.4-.4-.6l1.1-5c0-.2 0-.3-.1-.3-.1-.1-.2-.1-.3-.1l-3.5.4a1.13 1.13 0 0 0-.8.5l-1.9 5.1c-.1.3-.4.6-.8.7-.7.3-1.4.8-2.2 1.2-.3.2-.6.2-.7 0l-1.8-2.7c-.1-.2-.4-.2-.6.1l-3.8 4c-.2.2-.4.6-.3.8l1.1 3.6c.1.2 0 .6-.2.9l-1.8 3.1c-.1.3-.5.5-.8.6l-3.3.8c-.3.1-.7.4-.7.6l-1.6 5.6c-.1.3.1.5.4.5l3 .2a.47.47 0 0 1 .5.5c-.1 1-.1 2 0 2.9a1.9 1.9 0 0 1-.3.9l-3.3 4c-.2.2-.3.6-.2.8l1.6 3.5s0 .1.1.1h.1a.76.76 0 0 0 .4-.2l3.6-3.3c.3-.2.6-.3.8-.1.5.4 1 .7 1.5.9.2.1.4.4.4.6l-1.1 5c0 .2 0 .3.1.3s.2.1.3.1l3.5-.3a1.13 1.13 0 0 0 .8-.5l1.9-5.1c.1-.3.4-.6.8-.7l1.1-.6c.3-.2.7-.4 1-.7.3-.2.6-.2.7 0l1.8 2.7s0 .1.1.1c.1.1.4 0 .6-.2l3.8-4c.2-.2.4-.6.3-.8l-1.1-3.6c-.1-.2 0-.6.2-.9.7-1 1.2-2 1.8-3.1.1-.3.5-.5.8-.6l3.3-.8c.3-.1.7-.4.7-.6l1.6-5.6c.1 0 0-.2-.2-.3zm-12.9 10.6c-1.5 1.6-3.1 2.6-4.5 2.9h-.3c-.1 0-.2 0-.3.1h-.7c-1.4 0-2.6-.7-3.3-2.2-.3-.5-.4-1.2-.5-1.8 0-.3-.1-.7-.1-1 0-3.2 1.6-7.1 4.3-9.9.9-.9 1.8-1.6 2.7-2.1.3-.2.6-.3.9-.4.9-.4 1.7-.6 2.5-.5h.3c1.2.2 2.2.9 2.7 2.2 1.5 3.2-.2 9-3.7 12.7z"/><path id="y" d="M549.7 110.5c3.6-3 7.1-3.8 10-2.6h0l17.6 8.4-.4 1.1c1.1 1.5 2 3.4 2.4 5.9 1.6 9-2.9 21-9.9 26.9-1.9 1.6-3.8 2.6-5.6 2.9l-.4 1.2-17.5-8.4c-2.9-.9-5.2-3.9-6-8.5-1.7-9.1 2.8-21.1 9.8-26.9z"/><path id="z" d="M564.4 140.3c.2 1.1.5 2 1 2.6 1.4 2 3.9 2.2 6.4.1 3.3-2.8 5.5-8.5 4.7-12.9-.5-2.8-2-4.3-4-4.2-1.1 0-2.2.5-3.4 1.5-3.3 2.9-5.5 8.6-4.7 12.9z"/><path id="AA" d="M492.9 123.5l57.8 12.7c3.2-.5 5.4-3.6 4.9-6.8s-3.6-5.4-6.8-4.9h-.2l-57.3-9.9c-2.4.5-4 2.9-3.5 5.3s2.7 4 5.1 3.6z"/><path id="AB" d="M478.5 103.4c2.5-2.1 5.1-2.7 7.1-1.9h0l12.4 6.4-.3.8c.8 1 1.4 2.4 1.7 4.2 1.1 6.4-2 15-7 19.1-1.4 1.1-2.7 1.8-4 2.1l-.3.8-12.4-6.4c-2.1-.7-3.7-2.7-4.3-6-1-6.4 2.1-14.9 7.1-19.1z"/><path id="AC" d="M488.9 125.1c.1.8.4 1.4.7 1.9 1 1.4 2.8 1.6 4.6.1 2.4-2 3.9-6.1 3.3-9.1-.3-2-1.4-3-2.8-3-.8 0-1.6.4-2.4 1.1-2.5 1.8-4 5.9-3.4 9z"/><path id="AD" d="M548.3 247.6v79.8c-5.9 4.2-11 11.3-14.4 19.2l-5.2 3V253l15.1-8.7c.9-.5 1.7-.6 2.4-.5.1 0 .3.1.4.1 0 0 .1 0 .1.1.1 0 .1.1.2.1.1.1.2.2.3.2l.3.3c.2.2.3.5.5.8.1.2.1.3.2.5 0 .1.1.3.1.5v.1c0 .2.1.3.1.5-.1.2-.1.4-.1.6z"/><path id="AE" d="M411.2 308.2l13.7 7.8h.1c.2.1.3.3.3.7 0 .7.5 1 1.2.8.3-.1.5-.1.8-.2.6-.1 1.1-.3 1.6-.3.3 0 .7-.2 1-.5l-16-9.2c-.3.3-.7.5-1 .5-.6.2-1.1.3-1.7.4z"/><path id="AF" d="M386.5 332.3l16 9.2c.2-.2.4-.2.5-.2.4.1 1.2-.6 1.6-1.6l1.8-3.4c.5-.9.7-2 .5-2.4-.1-.1-.1-.4-.1-.6l-16-9.2c0 .2 0 .4.1.6.3.4 0 1.5-.5 2.4l-1.8 3.4c-.5.9-1.2 1.6-1.6 1.6-.2 0-.4.1-.5.2z"/><path id="AG" d="M390.3 360.7c0 9.8 3.2 16.8 8.4 19.8l1.1.6c-5.1-3-7.1-9.2-7.1-19 0-18.1 11-39.2 24.6-47 6.1-3.5 10.3-4.6 14.6-2.2l-1.5-.8c-4.2-2.1-9.6-1.8-15.5 1.6-13.6 7.8-24.6 28.8-24.6 47z"/><path id="AH" d="M390.8 324.2l16 9.2c0-.5.3-1.1.7-1.7l4-5.3c.4-.6 1-.9 1.3-.8l-15.9-9.1c-.3-.2-.9.1-1.4.8l-4 5.4c-.5.4-.7 1-.7 1.5z"/><path id="AI" d="M383.3 342.2l.1.1.3.2 15.5 8.9c-.3-.3-.3-1 0-1.8l2.3-6.6c.2-.6.6-1.2.9-1.4l-16-9.2c-.3.3-.7.8-.9 1.4l-2.3 6.6c-.2.8-.2 1.6.1 1.8z"/><path id="AJ" d="M451.9 365.9c-.9-.5-1.6-.1-1.6.9v21.1l-42.9-24.8v-21c0-1-.7-2.3-1.6-2.8l46.1 26.6z"/><path id="AK" d="M343 378.8l2.1 1.2c.6.3 1.4.4 2.1.3.3-.1.6-.1.8-.3l6.9-4v-.3c-.1-.5-.5-1-.9-1.2l-1.3-.7a1.71 1.71 0 0 0-1.4 0c.1-.4.4-.6 0-.8l-1.3-.7a1.71 1.71 0 0 0-1.4 0l-4 2.3c-.4.2-.8.8-.9 1.2l-.7 3z"/><path id="AL" d="M340.6 373.9c0-.3.2-.6.6-.8l8-4.6c.8-.5 2.1-.5 2.9 0l3.9 2.3c.4.2.6.5.6.8v1.8c0 .3-.2.6-.6.8l-8 4.6c-.8.5-2.1.5-2.9 0l-3.9-2.3c-.4-.2-.6-.5-.6-.8v-1.8z"/><path id="AM" d="M348.7 374c-1.3.1-1.5-1.4-1.6-2.1-.1-2.3 1.5-5.4 3.4-6.6.5-.3 1-.5 1.4-.5 1.3-.1 1.5 1.4 1.6 2.1.1 2.3-1.5 5.4-3.4 6.6-.5.3-1 .5-1.4.5h0z"/><path id="AN" d="M292.7 434.2l-1.3-8c0-.3.1-.5.5-.7l.2-.1c.1-.1.2-.1.3-.1s.2.1.2.2l2.3 3.2c.1.2.3.4.5.8h0c-.1-.4-.2-.7-.2-.9l-.6-4c0-.3.1-.5.5-.7l.2-.1c.3-.2.5-.2.6.1l1.3 8c0 .3-.1.5-.5.7l-.2.1c-.1.1-.2.1-.3.1s-.2-.1-.2-.2l-2.4-3.3c-.1-.1-.2-.3-.4-.7v.1c.1.4.2.6.2.8l.7 4.1c0 .3-.1.5-.5.7l-.2.1c-.5.1-.7.1-.7-.2z"/><path id="AO" d="M247.2 274.1l-34.3 93.3c-.1.2-.3.5-.6.6-.9.5-2.3.5-3.1 0-.4-.2-.6-.5-.6-.8v-.3c0-.2 0-.4.1-.6l34.4-93.8c.4-1.1 1.7-1.7 2.8-1.3s1.7 1.7 1.3 2.9z"/><path id="AP" d="M202.57 334.495l34.38 19.85-2.45 4.243-34.38-19.85z"/><path id="AQ" d="M219.2 267.7l18.3-10.6c1.5-.9 3.2-1 4.6-.4s2.4 2 2.8 3.7l30.4 142.4v.6c-.1.3-.3.5-.6.8-.9.5-2.3.5-3.1 0-.3-.2-.5-.4-.6-.7v-.1l-30.4-142.1c-.1-.3-.2-.5-.3-.5s-.3 0-.6.2l-18.3 10.6"/><path id="AR" d="M234.6 335.8l-11.2-6.4c-.4-.2-.7-.7-.7-1.2v-.3c0-.4.3-.9.7-1.2l26.8-15.5c.4-.2 1-.2 1.3 0l11.2 6.4c.4.2.7.7.7 1.2v.3c0 .4-.3.9-.7 1.2l-26.8 15.5c-.3.2-.9.2-1.3 0z"/><path id="AS" d="M235.3 334.4v1.6c.2 0 .5-.1.7-.2l26.8-15.4c.4-.2.7-.7.7-1.2v-.3c0-.2-.1-.4-.2-.7l-28 16.2z"/><path id="AT" d="M223 327.3c-.1.2-.2.4-.2.7v.3c0 .4.3.9.7 1.2l11.2 6.4c.2.1.4.2.7.2v-1.6l-12.4-7.2z"/><path id="AU" d="M260.6 223.4c3.3-.4 5.9-.2 7.2.9 1.3 1.2 2.6 2.3 3.5 6.8l2.1 10.8s-2.5 5.2-11.5 4.5l-1.3-23z"/><path id="AV" d="M267.2 228.5c-.5-2.8-4.1-5.7-7.5-5.1l-1.6.2c-.4 1.7-7.7 3.5-11 2-1.3.3-4.7 1-5.8 1.4-3.1 1-4.4 4.1-4.9 14.3 0 0 1.9 23.3 1.9 29.8 5.3 1.5 12 1.8 18.5.3 9.3-2.1 10.6-5.7 10.6-5.7l-.9-10.7c.1.1 1.9-20.2.7-26.5z"/><path id="AW" d="M242.2 226.8c-4.6-.1-7.2 2.3-12.2 5.2l-7.2 4.2s-1.4 7 3.9 10.2l12.1-5.6c3.4-2.3 5.8-8.3 3.4-14z"/><path id="AX" d="M222.2 288.5l-34.3 93.2-.1.2c-.1.2-.3.4-.6.5-.9.5-2.3.5-3.1 0-.4-.2-.6-.5-.6-.8v-.3c0-.2.1-.4.1-.6L218 287c.4-1.1 1.7-1.7 2.8-1.3 1.2.4 1.8 1.7 1.4 2.8z"/></defs></svg>